<svg width="594" height="168" fill="none" xmlns="http://www.w3.org/2000/svg"><path d="M297 167c163.517 0 296-37.121 296-83 0-45.78-132.483-83-296-83S1 38.32 1 84.1C1 129.879 133.483 167 297 167z" fill="#fff" stroke="#262626" stroke-width="1.5" stroke-miterlimit="10"/><path d="M395.338 86.521c-2.291-.098-5.779 1.183-5.779 3.942-.099 3.842 9.566 4.532 12.455 3.35.698-4.829-3.089-6.602-7.473-5.42-.099.493.2.69.797.591M305.4 93.61c0 1.873-.099 3.843.1 5.715 2.69.887 7.971-1.675 5.081-4.73-1.394-1.477-5.978-2.167-7.871-3.152.299.492.598.985.996 1.38M224.542 63.853c-3.288 2.66-4.085 3.547.598 4.927.498-1.183 1.694-1.675 2.591-2.365-.897-.887-1.993-.985-3.288-1.28M192.411 83.659c4.185.492 5.48.492 3.089-3.843-1.196.492-2.392-.099-3.587-.197-.1 1.28.697 2.069 1.295 3.153M139.031 87.465c-4.683 2.956-.398 8.277 4.085 7.292.798-2.07 1.595-8.967-2.391-8.179M224.137 91.443c-2.59.788-2.59 4.434-5.281 5.813 1.694.099 3.289-.788 4.285-2.168 1.495.986 3.786 5.912 6.178 4.73 3.487-1.774-.798-7.094-3.488-7.193-.099-.394-.199-.788-.199-1.084M452.615 68.583c-.398-3.843-3.387-3.646-6.476-4.336-1.395-.295-3.189-1.38-4.484-1.38-1.893.1-4.583 2.366-6.177 3.351.199 6.7 17.536 3.744 21.522 3.744M302.11 58.943c.798-.985 2.491-1.872 3.587-3.054.997-1.084 2.392-2.267 4.185-1.774.499.099.797.296.897.788 1.196.493 1.395.69 2.79.69 1.993 0 3.886-.296 5.978-.099-.199 3.942-2.192 9.657-5.081 9.46-1.395-.099-2.591-.887-3.986-1.183-1.893-.394-3.288 0-5.181.099.498-1.872-1.694-4.336-3.587-3.941" stroke="#262626" stroke-miterlimit="10" stroke-linejoin="bevel"/></svg>