<svg width="41" height="33" fill="none" xmlns="http://www.w3.org/2000/svg"><path d="M21.4 1.2c.2-.2.2 0 .4 0 1.2.1 2.4.4 3.5.6 3.1.6 5.9 1.4 8.5 3.1 1.3.8 2.4 1.7 3.4 2.9.4.5.6.7.7 1.3.2.9.4 1.8.8 2.6.2.5.7 1.2.6 1.8-.2.2-.6.2-.8.2-1.4.3-2.9.4-4.3.5-1.8.2-3.4.4-5.1.8-1.9.4-3.9.6-5.9.9-3 .5-6 .9-9 1.5-2.8.6-5.6 1.2-8.4 1.7-1.4.3-2.8.4-4.2.7-.3.1-.6.2-.9.2 0-.2.2-.5.4-.7.9-1 2.3-1.7 3.3-2.5 1.7-1.4 3.3-3 5-4.4 1.4-1.2 3-2.2 4.5-3.4 2.7-2.1 5.4-4.2 7.9-6.5.4-.4.9-.8 1.2-1.2.1-.1.2-.3.3-.4.3-.2.9 0 1.2.1 1.4.4 2.4 1.4 3.6 2.2.8.5 1.6.9 2.5 1.3.5.2.8.6.9 1.2l1.2 2.7c.5.8 1 1.5 1.6 2.3.6.9 1 1.9 1.5 2.8.3.4.6.8.9 1.1.2.3.3.7.3 1 .2 1.5.5 2.8.2 4.4-.1.7-.5 1.8-.2 2.5.6-1 .9-2.5 1.1-3.6 0 .6-.1 1.2-.1 1.8 0 1.1-.1 2.2-.2 3.3-.1.7-.1 1.4-.2 2.1-.1.5-.1 1.1-.2 1.6-.1.3-.4.7-.6 1-.3.5-.5 1-.8 1.5-.3-.1-.6-.3-.9-.4-.5-.2-.9-.3-1.4-.5h-1.9c-.5 0-1 .1-1.5.1-1.5 0-3 0-4.5.1-2.4.1-4.7.5-7.1 1-1 .2-2.2.5-3.2.6-1.2.1-2.5 0-3.7.1-.9.1-1.7.3-2.6.4-.9.1-1.6 0-2.4-.1-.9-.1-1.7 0-2.6-.1-.3 0-.7 0-.9-.2-.2-.1 0-2.8 0-2.8 0-2-.1-3.9-.2-5.9L2.8 18c-.1.9 0 1.9 0 2.8v3c.1.5 0 .4.4.6.3 0 .6 0 .9.1 2.2.4 4.2.5 6.4.4 1.6 0 3.1-.1 4.7-.3 3.1-.4 6.2-1.5 9.2-2.2l5.1-1.2c1.7-.4 3.5-.5 5.3-.8 1-.1 3-.3 3.8-1.1-.3-.3-1.5 1.6-1.2 2.3-.2.3-.7.1-.9.1-2.6-.2-5.2 0-7.7.4-1 .2-2.1.4-3 .8-1.7.5-3.4.8-5.1 1.1-2.7.5-5.3.7-8 .7-2.4 0-4.8-.1-7.1-.1-.4 0-.7-.1-1.1-.2-.3-.1-.7-.1-1-.1.1 0-1.5-.2-1.7-.1.3.2.7.2 1.1.2.8 0 1.1-.2 1.3-1 .1-.4.2-.7 0-1.1-.1-.2-.4-.5-.6-.7-.3-.4-1-1.3-.5-1.7v.6c0 .4-.1.4.2.6.3.2 1.3-.1 1.5-.2 1.1-.4 1.3-1 1.5-2 0 1.1-.1 4.3 1.8 2.7.7-.6 1.3-1.6 1.9-2.3.3-.4 1.2-1.9 1.8-2-.3 1.2 1.1 3.1 2.3 3.4.6.2 1-.1 1.6-.1.1 1.4-1.1 3.1-.2 4.5.3.4 1 .7 1.4.4.8-.4.6-2.3.6-2.9 0-.4-.1-.8-.1-1.3-.1-.5-.2-1.1-.3-1.6 0-.6.4-.9.8-1.2.5-.4 1-.9 1.6-1.2.6-.3 1.4-.4 2.1-.5.6-.1.8.2 1.3.5.4.3.3.4.9.1.5-.3.9-.8 1.5-.9.1.7-.1 2.1.9 2.1.7 0 1.7-.9 2.2-1.3.3.4.1.8.5 1.2.7.7 1.9.1 2.4-.6.4-.6.2-1.2.2-1.8.5-.2 1.2-.2 1.7-.3.8-.2 1.3-.3 2.1-.2.9.1 1.7.2 2.1 1.1.5 0 .8 0 .9-.6.1-.6-.3-1.6.3-2 .3-.2 1.9.1 1.5-.8h-.2" stroke="#262626" stroke-width=".75" stroke-miterlimit="10"/></svg>