<svg width="528" height="303" fill="none" xmlns="http://www.w3.org/2000/svg"><path d="M263.8 301.5c144.9 0 262.3-34.2 262.3-76.4s-117.4-76.4-262.3-76.4S1.5 183 1.5 225.1c0 42.2 117.4 76.4 262.3 76.4z" stroke="#262626" stroke-width="2" stroke-miterlimit="10"/><path d="M504.5 48.5c-1.2-1.9-2.3-1.7-3.9-2.7-5.8-3.8-12.5-6.9-18.8-9.9-15.3-7.3-28.9-14.4-45.4-18.3-13.8-3.3-26.9-9-41.1-10.3-7.3-.6-14.4-1.4-21.7-2.4-14.7-1.9-29.2-.8-43.9-1.5-15.5-.8-30.6-2.8-46.2-2.3-11.2.4-22.4 1-33.6 1.4-19.6.8-38.8 4.7-58.3 5.1-20 .4-38.8 3.6-58.1 8.7-19 5-39.5 11.1-57.1 20.2-4.8 2.5-8.7 6.5-13.9 8.1-5.7 1.8-7.6 2.2-12.5 5.3-11.9 7.4-12.7 11.9-14.7 25.3-2 12.8 1.2 24.2 4 36.8 2.4 10.8 5.3 22.7 11 32.3 8.1 13.6 20.2 20.2 34.7 25.2 15.8 5.5 30.2 8 46.9 9.6 31.2 3.1 62.7 5.7 94 8.1 45.2 3.4 89.6-3.4 133.9-11.6 25.9-4.8 52-6.9 77-15.2 8.2-2.7 19.5-5.2 26.3-10.9 3.4-2.6 5.6-6.1 6.7-10.3 2.4-3.8 5.1-7.3 8.1-10.6 9.7-13.1 15.1-26.3 15.7-42.6.6-14.4 3.7-29.9 0-44.1-.5-2-1.2-8.2-4-9.1-3.3-1.1-2.9 3.6-2.7 5.1.7 6.1 8.2 9.5 10.3 14.9 2.6 6.9.3 17.9 1.1 25.2 1.6 15.5 2.2 29.3 1.1 44.7-1.2 17.2-.1 35.1-2.6 52.2-2.3 16-1.1 32-2.9 48-.5 4.4.9 11.4-1.6 14.6-2.4 3.2-7.6 4-11.1 4.9-11.4 3-20.6 9.3-28.7 17.8-13.5 13.9-30.1 28.6-49.8 31.6-10.9 1.7-21.7 3.4-32.6 4.7-20.1 2.5-41.3 6.5-61.6 4.3-10.1-1.1-20-4-29.9-5.8-11.8-2.1-23.5-2.9-35.4-3.4-14.8-.6-29.7.8-44.4-2.1-12.9-2.5-25.5-11.2-36.9-17.6-7.1-4-14.7-5.5-22.6-6.7-8.2-1.3-15.4-3.7-23.2-6.6-9.5-3.5-20.3-5.2-28.7-10.6-3.5-2.3-6.2-6-10.2-7.6-1.2-.5-3.2-.4-4.2-.9-.7-1.4-1.7-2.5-3.1-3.3-3.1-2.2-6.3-1.9-9.3-4.9-3.2-3.2-4.4-6-5.5-10-2.8-10.9-1.8-22-1.8-33.2 0-16.3-.1-32.5 0-48.8 0-6.6 0-13-1.4-19.4-.5-2.3-1.8-5.6-1.7-8.1-1.4 1.5-.8.1-.9 3.3-.3 7.1 2.3 17 4.2 23.8 2 7.3 5.8 14.7 12.1 19.2 7.6 5.4 14.6 5.1 13.2 16.2-3.4-2.1-7.5-6.3-11.8-5.2 0 5.4-7.3 5.2-8.3 10.5-1.8 9.7 9.3 20.4 16 25 7.2 5 16.6 4.9 24.9 2.4 4-1.2 11.7-5.1 11.8-10-2.4 1.7-1 3.9.3 7 5.2 12.3 19.6 16.5 32 15.6 9.1-.7 13.2-4.6 13-13.8-.1-6.7-2.9-14.4-9.9-16.5-4.2 3.2-3.6 11.5-1.3 15.7 3.2 5.8 10.5 8 16.5 9 2.5.3 4.9.6 7.4.9 5.1 1.2 10.1 2.6 15 4.4 4.8 0 5.2-1.3 7.2-6.6 4-10.2-5.1-21.1-9.5-6.4-2.1 7.2-4.1 15.4-1.4 22.7 4.2 11.4 18 9.1 27.9 9.3 4.8.1 16.6 1.6 18.7-5.4.8-2.5.4-10.3-1-12.6-2.4-4.1-4.8-5.4-8.8-.9-7.3 8.1-1.5 27.5 7.5 32.1 3.9.2 7.8.5 11.7.7 10.6.6 21.2 0 31.7-1.6 7.1-2.9 14.2-11.8 11.7-20.1-1-3.3-2.9-6.1-6.7-5.7-8 .9-5.8 18.7-5.2 23.3 8.6 3.8 17.6 5.2 27.2 4.2 8.2.3 16.4.7 24.6 1 11.4 3.9 20.6 1.8 27.7-6.2-3.5-12.1-9.7-36.1-26.3-33.2-4 17-4 38.7 19.7 35.2 17.7-2.6 55.5-31.4 29.6-47.6-5.2 3.4-7.3 8.3-6.2 14.9.4 11.6 6.6 18.5 18.5 20.7 13.8 3.7 25.6.6 35.1-9.5 5.5-7.7 7.4-24.4-.7-30.7-4 2.6-6.5 6.3-7.6 11-3.6 14.4 12.9 13.5 22.6 12.3 11.9-.1 21.1-4.9 27.5-14.3 2.7-6 1.5-15.8.2-22.2-3.5-1.3-6.4-.2-8.8 3.3-3.6 4.3-3.7 8.7-.6 13.2 12.6 1.5 24.2-1.6 30.9-13.9 3.5-6.4 7.7-23.9-.7-29.2-5.5 2.1-3.9 10.5-3.8 14.8 11.9 3.2 21.5-12.4 14.2-22.4 1.7 3-.5 5.6 3.8 4.9 2.4-.4 7.5-5.7 4-7 .3 1.7 2 1.6 4.1 1.5 7-.6 8.6-8.3 9.2-14 2.2-22.1-17.7-5-14.9-.9 6-3.3 9.6-14 3.5-19.1-2-1.6-8.5-3.4-8.7.7l1.2.3" stroke="#262626" stroke-width="1.5" stroke-miterlimit="10"/></svg>