<svg width="48" height="16" fill="none" xmlns="http://www.w3.org/2000/svg"><path d="M.5 14.3c1-1 .7-3 .6-3.2C.8 10.1.7 9 .6 8c-.2-1.9.2-4 1-5.8.3-.6.3-.8 1-1.1C3.7.6 5.5.3 6.8.4c1.3.1 2.5.7 3.7.9 1.2.2 2.6.3 3.5 1 1 .7.9 2 .9 2.9 0 .6-.4 1.2-.2 1.8.7 1.8 5.4.9 7 .2 1.5-.6 2.4-1.7 3.3-2.6 1-1 1.2-1.9 3.3-1.9 2.8 0 5.5-.3 8.3-.3 1 0 2.1-.1 3.1 0 1.1.2 2.5.6 3.5.9 1.6.5 3.1 1.3 3.8 2.4.8 1.1.6 2.7.6 3.9 0 .9.5 2.2-.9 2.7-.9.3-1.9.7-2.8 1-.1-.3.1-.8-.2-1.1-.5-.4-2.1-.3-2.8-.3-1.6 0-3-.1-4.6-.3-1.1-.1-1.5-.4-2.4-.8-.9-.5-2-.8-3-1.2-1.4-.7-1.9-1.7-2.7-2.6-.6-.7-1.1-1.3-1.2-2.1-.1-.5.2-.9.6-1.3.3-.3.5-.7 1.1-.7-1.1 0-2.3.2-2.7 1-.4.7.2 1.6.7 2.3.3.4.7.6.9 1 .3.5.4.8.8 1.3.4.4.8.7 1.4 1 .9.4 1.7 1 2.6 1.4.3.1.6.2.9.2.3.1.6.2.7.4 1.7.9 3.8 1.6 6 1.9.6.1 1.3.2 2 .2.2 0 .4-.1.7-.1-3 2.1-9.2 1.4-13.1 1.4-1.2 0-2.7.1-3.9 0-.7-.1-2.1-.2-2.7-.5-.7-.3-.5-.9-1-1.3-.4-.3-1.1-.5-1.8-.6-.7-.1-1.4 0-2.2-.2-.6-.1-1.1-.3-1.7-.5-1.1-.3-2.1-.3-3.2-.3-.3 0-1.6-.1-1.8 0-.2.1-.5.6-.4.8-.7.2-3.9 1.7-4.5 2" stroke="#262626" stroke-width=".25" stroke-miterlimit="10"/><path d="M9.8 1.2H8.2c-.3 0-.6.1-.8.4-.2.4-.2 1.1-.3 1.6-.1.8.4 1.4.2 2.1-.1.3-.1.7.2.9.2.1.5 0 .5-.3 0-.5-.5-.6-.8-.6v.4c0 .2.2.2.3.4.1-.1.1-.4-.1-.5-.1.1-.2.3-.1.5.2 0 .4-.2.5-.4-.1.1-.1.3 0 .4.1.1.2-.6 0-.6-.1 0-.2.2-.1.1 0 .1 0 0 .1 0m20.4-2.9c2.8 0 5.5-.3 8.3-.3 1 0 2.1-.1 3.1 0 1.1.2 2.5.6 3.5.9 1.6.5 3.1 1.3 3.8 2.4.8 1.1.6 2.7.6 3.9 0 .9.5 2.2-.9 2.7-.9.3-2 .7-2.8 1-.1-.3.1-.8-.2-1.1-.5-.4-2.1-.3-2.8-.3-1.6 0-3-.1-4.6-.3-1.1-.1-1.5-.4-2.4-.8-.9-.5-2-.8-3-1.2-1.4-.7-1.9-1.7-2.7-2.6-.6-.7-1.1-1.3-1.2-2.1-.1-.5.2-.9.6-1.3.3-.3.5-.7 1.1-.8l-.4-.1z" stroke="#262626" stroke-width=".25" stroke-miterlimit="10"/></svg>