<svg width="891" height="516" fill="none" xmlns="http://www.w3.org/2000/svg"><path fill-rule="evenodd" clip-rule="evenodd" d="M849.778 515.451L9.422 469.938c-2.073-.111-3.679-1.888-3.567-3.947l23.66-436.86c.111-2.06 1.9-3.654 3.972-3.541L873.842 71.1c2.075.114 3.68 1.892 3.568 3.95l-23.659 436.861c-.112 2.06-1.899 3.652-3.973 3.54z" fill="#DDE8F2" stroke="#262626"/><path fill-rule="evenodd" clip-rule="evenodd" d="M886.686 445.843L45.397 468.24c-2.076.056-3.819-1.585-3.874-3.648L29.88 27.247c-.055-2.062 1.598-3.794 3.674-3.849L874.843 1.001c2.075-.054 3.82 1.587 3.874 3.65l11.644 437.343c.054 2.063-1.599 3.794-3.675 3.849z" fill="#DDE8F2" stroke="#262626"/><path fill-rule="evenodd" clip-rule="evenodd" d="M856.405 493.123L15.33 463.752c-2.075-.072-3.715-1.818-3.642-3.879L26.956 22.639c.072-2.061 1.829-3.688 3.904-3.617l841.074 29.372c2.076.073 3.714 1.819 3.644 3.879l-15.27 437.234c-.071 2.061-1.829 3.688-3.903 3.616z" fill="#DDE8F2" stroke="#262626"/><path fill-rule="evenodd" clip-rule="evenodd" d="M849.778 511.003L9.422 465.491c-2.073-.112-3.679-1.888-3.567-3.948l23.66-436.86c.111-2.06 1.9-3.654 3.972-3.541l840.355 45.511c2.075.112 3.68 1.89 3.568 3.95l-23.659 436.86c-.112 2.061-1.899 3.653-3.973 3.54z" fill="#DDE8F2" stroke="#262626"/><path fill-rule="evenodd" clip-rule="evenodd" d="M871.342 464.02H29.756c-2.078 0-3.776-1.687-3.776-3.75V22.77c0-2.062 1.698-3.75 3.776-3.75h841.586c2.077 0 3.776 1.688 3.776 3.75v437.5c0 2.063-1.699 3.75-3.776 3.75z" fill="#DDE8F2" stroke="#262626"/><path fill-rule="evenodd" clip-rule="evenodd" d="M67.02 66.02c6.35 0 11.5-5.147 11.5-11.5 0-6.352-5.15-11.5-11.5-11.5-6.351 0-11.5 5.148-11.5 11.5s5.148 11.5 11.5 11.5z" fill="#262626" stroke="#262626"/><path fill-rule="evenodd" clip-rule="evenodd" d="M65.676 49.35L4.854 61.172c-3.24.63-5.374 3.796-4.744 7.035.63 3.24 3.794 5.375 7.035 4.745l60.82-11.823c3.241-.629 5.375-3.795 4.746-7.034-.556-2.857-3.083-4.855-5.894-4.855-.377 0-.758.036-1.14.11" fill="#C4C4C4"/><path fill-rule="evenodd" clip-rule="evenodd" d="M65.676 49.35L4.854 61.172c-3.24.63-5.374 3.796-4.744 7.035.63 3.24 3.794 5.375 7.035 4.745l60.82-11.823c3.241-.629 5.375-3.795 4.746-7.034-.556-2.857-3.083-4.855-5.894-4.855-.377 0-.758.036-1.14.11" fill="url(#paint0_linear)"/><path fill-rule="evenodd" clip-rule="evenodd" d="M65.676 49.35L4.854 61.172c-3.24.63-5.374 3.796-4.744 7.035.63 3.24 3.794 5.375 7.035 4.745l60.82-11.823c3.241-.629 5.375-3.795 4.746-7.034-.556-2.857-3.083-4.855-5.894-4.855-.377 0-.758.036-1.14.11" fill="url(#paint1_linear)"/><defs><linearGradient id="paint0_linear" x1="36.411" y1="49.24" x2="36.411" y2="73.063" gradientUnits="userSpaceOnUse"><stop stop-color="#fff"/><stop offset="1" stop-color="#fff" stop-opacity="0"/></linearGradient><linearGradient id="paint1_linear" x1="33.921" y1="65" x2="32.421" y2="57.5" gradientUnits="userSpaceOnUse"><stop stop-color="#1E1FAF"/><stop offset="1" stop-color="#fff" stop-opacity="0"/></linearGradient></defs></svg>
