<svg width="164" height="155" fill="none" xmlns="http://www.w3.org/2000/svg"><path d="M86.005 70.284c.5 4.3 3.8 7.3 4.6 11.1.8 3.6-.6 7.5.4 11.2 2.3 8.799 1.7 17.899 1.7 27.299 0 9.2 2.4 21.6-4.4 28.8-6.3 6.7-18 5.4-25.6 1.8-8.6-4-10.4-9.4-10.3-18.6.1-11.3-.7-21.3 2.8-32 2-6 3.8-11.9 8.1-16.7 2.5-2.7 5.1-4.6 7.6-6.9 3.3-3 3.2-6.4 8.2-6.1 1.7.1 5.4 1.5 6.9 2.3 1.7.9 3.6 4 4.9 4.5 2 .7 4.2-.2 6.2 0 2.3.3 4.3 1.4 6.4 1.8 4 .7 7.6 1.4 11.6 2.9 1 .3 3.1.1 4.1.4 2.2.6 3.8 1.6 7 1.7 7.3.3 18.2 1.9 24.7-1.6 3.4-1.8 8.3-5.8 10-9.1 2.2-4.3 1.8-13.6 1.2-18.4-.6-4.8-2.6-9.1-3.9-13.4-1.3-4.2-21.6-27.1-23.1-26.8-1.8-.7-9.1-3.1-9.6-4.6-7.2-2.3-14.7-2.8-22.1-5-7.1-2.1-12.7-5.1-20.3-3.5-6.7 1.4-13.3 3-20.2 4.1-8.6 1.3-17.3.3-25.8 2.6-4.4 1.2-15.9 9.3-16.9 10.4-6 6.3-9.9 11.5-12.9 19.9-1.4 3.9-6.4 20.7-6.4 25.3 0 8.3-1.8 12.7 6 15.5 4.2 1.5 7.4 2.1 11.9 2.3 4.1.2 6.4-1.1 9.8-1.7 7.9-1.5 15.5-2.8 23.7-2.7 3.8 0 7.9.4 11.6 0 2.6-.3 6-1.7 8.6-1.1" stroke="#262626" stroke-width="1.2" stroke-miterlimit="10"/><path d="M19.405 41.983c1.9 0 3.4-.7 3.4-1.7 0-.9-1.5-1.7-3.4-1.7s-3.4.7-3.4 1.7 1.5 1.7 3.4 1.7zM117.205 59.983c1.9 0 3.4-.7 3.4-1.7s-1.5-1.7-3.4-1.7-3.4.7-3.4 1.7 1.5 1.7 3.4 1.7zM91.405 18.883c1.9 0 3.4-.7 3.4-1.7s-1.5-1.7-3.4-1.7-3.4.7-3.4 1.7 1.6 1.7 3.4 1.7zM141.405 45.483c1.9 0 3.4-1 3.4-2.3 0-1.3-1.5-2.3-3.4-2.3s-3.4 1-3.4 2.3c0 1.3 1.5 2.3 3.4 2.3zM53.505 18.884c1.9 0 3.4-.4 3.4-1 0-.5-1.5-1-3.4-1s-3.4.4-3.4 1 1.5 1 3.4 1zM79.605 49.584c1.9 0 3.4-.4 3.4-1s-1.5-1-3.4-1-3.4.4-3.4 1 1.5 1 3.4 1zM45.805 39.783c1.9 0 3.4-.4 3.4-1s-1.5-1-3.4-1-3.4.4-3.4 1 1.5 1 3.4 1zM142.505 71.184c1.9 0 3.4-.4 3.4-1s-1.5-1-3.4-1-3.4.4-3.4 1c.1.5 1.6 1 3.4 1zM38.705 60.983c1.9 0 3.4-.5 3.4-1.1 0-.6-1.5-1.1-3.4-1.1s-3.4.5-3.4 1.1c.1.6 1.6 1.1 3.4 1.1zM100.305 37.483c1.9 0 3.4-.5 3.4-1.1 0-.6-1.5-1.1-3.4-1.1s-3.4.5-3.4 1.1c0 .6 1.5 1.1 3.4 1.1zM126.205 23.683c1.9 0 3.4-.5 3.4-1.1 0-.6-1.5-1.1-3.4-1.1s-3.4.5-3.4 1.1c0 .6 1.6 1.1 3.4 1.1z" stroke="#262626" stroke-width="1.2" stroke-miterlimit="10"/></svg>
