<svg width="346" height="223" fill="none" xmlns="http://www.w3.org/2000/svg"><path clip-rule="evenodd" d="M1 1.315V222h344V1H1v.315z" stroke="#262626" stroke-width=".167"/><path clip-rule="evenodd" d="M2 222h342V2H2v220z" stroke="#262626" stroke-width=".167"/><mask id="a" maskUnits="userSpaceOnUse" x="30" y="48" width="287" height="174"><path transform="matrix(1 0 0 -1 30 222)" fill="#DDD9D6" d="M0 0h287v174H0z"/></mask><g mask="url(#a)" clip-rule="evenodd" stroke="#262626" stroke-width=".334"><path d="M42.667 48.948c-.001.457-.16 11.17-11.167 11.17h-.833V220.78l.832.002c.456.003 11.168.16 11.168 11.169v.831H304.371l.002-.829c.001-.457.16-11.171 11.167-11.171h.833V60.121l-.832-.002c-.456-.002-11.168-.16-11.168-11.168v-.832H42.67l-.003.829z"/><path d="M44.28 49.782c-.27 2.77-1.922 11.52-11.947 11.982v157.408c2.772.268 11.522 1.922 11.982 11.947H302.76c.27-2.773 1.922-11.523 11.947-11.983V61.729c-2.771-.268-11.52-1.922-11.98-11.947H44.281z"/></g></svg>
