<svg width="374" height="684" fill="none" xmlns="http://www.w3.org/2000/svg"><path fill-rule="evenodd" clip-rule="evenodd" d="M200.25 659.279c-8.489-9.881-18.705-17.564-30.649-23.049-24.481-13.209-45.669-30.642-63.562-52.301-30.582-31.632-56.675-66.566-78.28-104.8C12.026 441.5 7.708 393.777 3.842 353.539c-4.471-46.528-.513-93.66-1.57-140.33-2.943-19.321-2.3-38.43 1.935-57.33 12.03-16.178 49.95-15.807 67.344-16.436 20.236-.73 36.649-2.123 46.878 16.363 15.654 28.289 13.8 78.444 15.889 108.744 3.698 53.655 10.128 105.362 8.076 159.571 4.135-48.957 30.887-102.096 47.294-146.873 27.685-75.553 55.799-150.655 98.71-219.303C298.881 41.175 316.014 7.165 339.142 0c26.946 29.414 30.619 76.855 33.258 114.217 4.474 63.357-1.525 131.474-8.678 194.517-5.291 46.631-14.766 93.324-32.412 136.959C323.385 465.291 227.165 680.49 257.916 684" fill="#262626"/><path d="M196 343.773l-.04-.742.957-.273 4.024-10.117 1.133-.684 4.258 10.801.976.273-.058.742h-3.946l-.039-.742 1.192-.273-1.153-2.891-.215-.605-2.129-5.313.45-.254-2.032 5.567-.214.586-1.036 2.91 1.192.273-.039.742H196zm2.734-3.613v-1.035a48.2 48.2 0 002.598.059 52.662 52.662 0 002.578-.059v1.035a45.286 45.286 0 00-1.328-.019 40.841 40.841 0 00-2.481 0c-.417 0-.872.006-1.367.019zm13.398 3.77a4.21 4.21 0 01-2.011-.489 3.8 3.8 0 01-1.465-1.445c-.365-.638-.547-1.393-.547-2.266 0-.846.189-1.608.566-2.285a4.502 4.502 0 011.582-1.621c.664-.403 1.42-.605 2.266-.605.573 0 1.055.071 1.445.215.391.143.684.332.879.566.209.234.313.482.313.742a.754.754 0 01-.196.528c-.13.13-.312.195-.547.195-.221 0-.403-.039-.546-.117-.144-.078-.332-.235-.567-.469l-.996-.996.703.195a2.304 2.304 0 00-1.504.156c-.481.209-.879.58-1.191 1.114-.313.52-.469 1.198-.469 2.031 0 1.042.261 1.842.781 2.402.534.56 1.198.84 1.993.84.494 0 .918-.091 1.269-.273.365-.183.71-.476 1.035-.879l.528.449c-.365.677-.827 1.185-1.387 1.523-.56.326-1.205.489-1.934.489zm4.09-.157l-.039-.703 1.113-.293c.013-.117.026-.325.039-.625.013-.299.026-.67.039-1.113.013-.456.02-.963.02-1.523v-2.832c0-.482-.007-.983-.02-1.504 0-.521-.006-1.016-.019-1.485 0-.468-.007-.866-.02-1.191-.013-.339-.019-.56-.019-.664l-1.446-.195-.039-.625 2.754-.801.391.273c-.026.43-.046.86-.059 1.289 0 .43-.006.873-.019 1.328-.013.443-.02.918-.02 1.426v1.621l-.019 4.785a18.329 18.329 0 00.058 1.504c.013.157.02.267.02.332l1.211.293-.039.703h-3.887zm8.75 0h-2.227a10.095 10.095 0 00-.566-.703c-.13-.156-.26-.306-.391-.449l-2.675-2.91h-.547l.019-.469.742-.215 2.715-2.695-1.289-.234.039-.723h3.926l.039.723-1.289.234-3.496 3.145.293-.704 2.754 2.969c.156.182.345.384.566.606.222.208.41.384.567.527l.879.176-.059.722zm.703 0l-.039-.703 1.211-.293c.013-.091.02-.215.02-.371a19.259 19.259 0 00.058-1.718l.02-1.504c0-.43-.02-.86-.059-1.289-.026-.43-.059-.762-.098-.997l-1.25-.273v-.645l2.618-.722.332.312-.098 1.035.059.02c.455-.495.905-.853 1.347-1.074a3.181 3.181 0 011.446-.332c.481 0 .931.123 1.347.371.43.234.775.605 1.035 1.113.274.495.411 1.12.411 1.875v2.168c0 .469.006.892.019 1.27.026.377.059.631.098.761l1.211.293-.059.703h-3.926l-.039-.703 1.133-.293a7.569 7.569 0 00.059-.996c.013-.247.019-.547.019-.898v-2.11c0-.585-.104-1.048-.312-1.386-.196-.352-.443-.599-.743-.742a1.952 1.952 0 00-.918-.235c-.429 0-.826.104-1.191.313a2.957 2.957 0 00-.957.898v2.93c0 .612.007 1.1.02 1.465.026.364.052.618.078.761l1.211.293-.059.703h-4.004zm15.156.157c-.846 0-1.588-.183-2.226-.547a3.845 3.845 0 01-1.465-1.524c-.352-.664-.527-1.419-.527-2.265 0-.886.188-1.654.566-2.305a4.175 4.175 0 011.563-1.523 4.425 4.425 0 012.168-.547c.807 0 1.51.182 2.109.547a3.64 3.64 0 011.406 1.504c.339.638.508 1.386.508 2.246 0 .82-.182 1.569-.547 2.246a4.237 4.237 0 01-1.484 1.582 3.772 3.772 0 01-2.071.586zm.196-.918c.442 0 .827-.13 1.152-.391.326-.273.579-.644.762-1.113.182-.482.273-1.029.273-1.641 0-1.12-.234-2.025-.703-2.715-.456-.703-1.061-1.054-1.816-1.054-.703 0-1.27.293-1.7.879-.416.572-.625 1.347-.625 2.324 0 .729.111 1.373.332 1.933.235.56.554.996.958 1.309.403.312.859.469 1.367.469zm14.506.84l-2.988-7.481-.996-.293.039-.703h3.594l.039.703-1.016.293 2.266 5.938-.488.019 2.324-5.957-1.016-.293.039-.703h3.028l.039.703-.918.293-3.34 7.481h-.606zm-5.683 0l-3.164-7.481-.918-.293.039-.703h3.613l.039.703-.996.293 2.422 5.938-.586.019 2.578-6.133.528 1.211-2.95 6.446h-.605zm11.094-.079l-.039-.722 1.269-.274a3.91 3.91 0 00.039-.644 73.238 73.238 0 00.059-3.008v-2.441c0-.482-.007-.983-.02-1.504 0-.521-.006-1.016-.019-1.485 0-.468-.007-.866-.02-1.191-.013-.339-.019-.56-.019-.664l-1.446-.195-.039-.625 2.793-.801.371.273-.039 1.66c-.013.534-.026 1.133-.039 1.797v2.403l-.019 3.144c0 .768.006 1.465.019 2.09.026.612.052 1.009.078 1.191l1.27.274-.039.722h-4.16zm9.55.157c-.755 0-1.438-.17-2.05-.508a3.68 3.68 0 01-1.446-1.445c-.351-.638-.527-1.387-.527-2.247 0-.924.189-1.725.566-2.402.378-.677.873-1.198 1.485-1.562a3.556 3.556 0 011.972-.547c1.016.013 1.81.351 2.383 1.015.573.651.86 1.589.86 2.813v.351h-5.996v-.859h4.707l-.215.254v-.41c0-.742-.17-1.315-.508-1.719-.326-.417-.788-.625-1.387-.625-.364 0-.716.111-1.055.332-.338.208-.612.534-.82.977-.208.429-.312.976-.312 1.64v.235c0 1.067.26 1.901.781 2.5.534.599 1.217.898 2.051.898.468 0 .879-.085 1.23-.254.365-.182.716-.482 1.055-.898l.488.449c-.364.677-.827 1.185-1.387 1.523a3.653 3.653 0 01-1.875.489zm11.426.058l-.293-.254.02-1.269-.059-.02c-.377.547-.775.931-1.191 1.153a2.758 2.758 0 01-1.309.332c-.742 0-1.406-.176-1.992-.528a3.832 3.832 0 01-1.387-1.425c-.325-.612-.488-1.316-.488-2.11 0-.69.117-1.321.352-1.894a4.402 4.402 0 012.363-2.422 4.093 4.093 0 011.621-.332c.351 0 .716.045 1.094.136.39.092.716.235.976.43 0-.234-.006-.54-.019-.918 0-.377-.007-.768-.02-1.172 0-.416-.006-.781-.019-1.093 0-.326-.007-.547-.02-.664l-1.523-.274-.039-.644 2.871-.801.351.273a137.32 137.32 0 00-.078 4.707l-.019 4.492c0 .664.013 1.237.039 1.719.039.469.065.801.078.996l1.25.313v.644l-2.559.625zm-2.344-1.367c.365 0 .71-.078 1.036-.234.338-.17.677-.463 1.015-.879v-4.199c-.247-.443-.56-.756-.937-.938a2.59 2.59 0 00-1.133-.273c-.82 0-1.465.306-1.934.918-.455.599-.683 1.38-.683 2.343 0 1.042.254 1.849.761 2.422.521.56 1.146.84 1.875.84zm9.942 5.606c-1.198 0-2.149-.196-2.852-.586-.703-.391-1.054-.912-1.054-1.563 0-.443.175-.853.527-1.23.352-.378.918-.762 1.699-1.153l.742.157c-.429.26-.761.553-.996.878a1.775 1.775 0 00-.351 1.055c0 .521.208.925.625 1.211.416.287.996.43 1.738.43.833 0 1.51-.183 2.031-.547.534-.365.801-.833.801-1.406 0-.443-.156-.775-.469-.996-.312-.209-.84-.339-1.582-.391l-2.09-.176-.293-.078c-.468 0-.872-.124-1.211-.371-.338-.26-.507-.573-.507-.938 0-.351.169-.696.507-1.035.339-.338.808-.638 1.407-.898l.254.39c-.248.17-.43.326-.547.469-.117.13-.176.261-.176.391 0 .182.078.338.234.469.17.117.404.195.703.234l2.52.254c.898.091 1.582.319 2.051.683.469.365.703.886.703 1.563 0 .599-.195 1.139-.586 1.621-.391.482-.918.859-1.582 1.133-.664.286-1.413.43-2.246.43zm.156-6.875c-.69 0-1.308-.124-1.855-.372-.534-.247-.951-.592-1.25-1.035-.3-.442-.45-.937-.45-1.484 0-.625.157-1.178.469-1.66.313-.482.736-.86 1.27-1.133a3.746 3.746 0 011.797-.43c.664 0 1.256.13 1.777.391.521.26.931.625 1.23 1.094.313.455.469.976.469 1.562 0 .573-.156 1.094-.469 1.563-.299.455-.716.82-1.25 1.093-.52.274-1.1.411-1.738.411zm.098-.782c.534 0 .957-.195 1.269-.586.313-.39.469-.911.469-1.562 0-.742-.176-1.328-.527-1.758a1.613 1.613 0 00-1.348-.664c-.534 0-.97.208-1.309.625-.338.404-.507.944-.507 1.621s.175 1.237.527 1.68c.365.429.84.644 1.426.644zm4.531-3.925l-2.324-.157-.762-.781 3.086-.312v1.25zm.957 7.128l-.039-.703 1.211-.293a2.58 2.58 0 00.019-.351c.013-.143.026-.352.04-.625.013-.274.019-.645.019-1.113l.02-1.524c0-.273-.007-.553-.02-.84a13.634 13.634 0 00-.137-1.426l-1.25-.273v-.645l2.618-.722.332.312-.098 1.055.058.02c.404-.508.821-.873 1.25-1.094.43-.222.879-.332 1.348-.332.456 0 .899.123 1.328.371.43.247.782.625 1.055 1.133.286.507.43 1.159.43 1.953l.019 2.07c0 .469.007.892.02 1.27.026.364.058.618.097.761l1.172.293-.058.703h-3.809l-.059-.703 1.075-.293a7.639 7.639 0 00.058-.996c.013-.247.02-.547.02-.898l-.02-2.149c0-.56-.091-1.009-.273-1.347-.169-.339-.397-.586-.684-.742a1.878 1.878 0 00-.918-.235c-.39 0-.768.098-1.133.293-.351.195-.664.501-.937.918v2.93c0 .599.006 1.087.019 1.465.027.364.053.618.079.761l1.152.293-.059.703h-3.945zm11.016 0l-.059-.703 1.113-.293a3.22 3.22 0 00.02-.39 17.566 17.566 0 00.058-1.504v-2.129c0-.573-.097-1.029-.292-1.367-.196-.339-.443-.586-.743-.742a1.805 1.805 0 00-.879-.235c-.455 0-.872.111-1.25.332-.364.222-.696.56-.996 1.016l-.371-.723c.456-.625.938-1.081 1.446-1.367.52-.3 1.067-.449 1.64-.449.547 0 1.042.13 1.485.39.442.261.794.638 1.054 1.133.261.495.391 1.094.391 1.797v2.207c0 .469.006.892.019 1.27.026.364.052.618.079.761l1.21.293-.039.703h-3.886zm9.277.157c-.755 0-1.439-.17-2.051-.508a3.671 3.671 0 01-1.445-1.445c-.352-.638-.527-1.387-.527-2.247 0-.924.188-1.725.566-2.402.378-.677.872-1.198 1.484-1.562a3.559 3.559 0 011.973-.547c1.016.013 1.81.351 2.383 1.015.573.651.859 1.589.859 2.813v.351h-5.996v-.859h4.707l-.215.254v-.41c0-.742-.169-1.315-.508-1.719-.325-.417-.787-.625-1.386-.625-.365 0-.716.111-1.055.332-.338.208-.612.534-.82.977-.209.429-.313.976-.313 1.64v.235c0 1.067.261 1.901.782 2.5.533.599 1.217.898 2.05.898.469 0 .879-.085 1.231-.254.364-.182.716-.482 1.054-.898l.489.449c-.365.677-.827 1.185-1.387 1.523a3.658 3.658 0 01-1.875.489zm4.551-.157l-.039-.703 1.211-.293c.013-.091.019-.215.019-.371.013-.156.026-.371.039-.644.013-.274.02-.632.02-1.074l.019-1.504c0-.43-.019-.86-.058-1.289-.026-.43-.059-.762-.098-.997l-1.25-.273v-.645l2.617-.722.332.312-.097 1.035.058.02c.456-.495.905-.853 1.348-1.074a3.177 3.177 0 011.445-.332c.482 0 .931.123 1.348.371.43.234.775.605 1.035 1.113.273.495.41 1.12.41 1.875v2.168c0 .469.007.892.02 1.27.026.377.058.631.097.761l1.211.293-.058.703h-3.926l-.039-.703 1.133-.293a7.639 7.639 0 00.058-.996c.013-.247.02-.547.02-.898v-2.11c0-.585-.104-1.048-.313-1.386-.195-.352-.442-.599-.742-.742a1.952 1.952 0 00-.918-.235c-.43 0-.827.104-1.191.313a2.957 2.957 0 00-.957.898v2.93c0 .612.006 1.1.019 1.465.026.364.052.618.078.761l1.211.293-.058.703h-4.004zm16.875-1.211c-.248.43-.586.769-1.016 1.016-.43.234-.879.352-1.347.352-.782 0-1.433-.241-1.954-.723-.507-.482-.761-1.204-.761-2.168l.058-4.668h-1.367v-.41l2.52-2.285h.371l-.039 2.246-.02 4.805c0 .677.143 1.178.43 1.503.299.326.716.489 1.25.489.299 0 .573-.059.82-.176.261-.13.495-.286.703-.469l.352.488zm-4.238-6.191v-.976h3.652v.976h-3.652z" fill="#FEFEFE"/></svg>
