<svg width="399" height="684" fill="none" xmlns="http://www.w3.org/2000/svg"><path fill-rule="evenodd" clip-rule="evenodd" d="M1.19 652.265L36.347 3.145c.087-1.6 1.459-2.84 3.05-2.755L376.84 18.666c1.591.086 2.821 1.467 2.735 3.069L344.42 670.854c-.086 1.602-1.459 2.841-3.049 2.755L3.925 655.334c-1.59-.086-2.821-1.467-2.734-3.069" fill="#231F20"/><path clip-rule="evenodd" d="M1.19 652.265L36.347 3.145c.087-1.6 1.459-2.84 3.05-2.755L376.84 18.666c1.591.086 2.821 1.467 2.735 3.069L344.42 670.854c-.086 1.602-1.459 2.841-3.049 2.755L3.925 655.334c-1.59-.086-2.821-1.467-2.734-3.069z" stroke="#262626" stroke-width=".772"/><path fill-rule="evenodd" clip-rule="evenodd" d="M54.958 680.774l-17.3-649.84c-.043-1.603 1.225-2.95 2.818-2.992l337.819-8.994c1.593-.042 2.931 1.235 2.974 2.838l17.3 649.84c.043 1.604-1.226 2.95-2.818 2.993l-337.82 8.993c-1.593.043-2.93-1.234-2.973-2.838" fill="#231F20"/><path clip-rule="evenodd" d="M54.958 680.774l-17.3-649.84c-.043-1.603 1.225-2.95 2.818-2.992l337.819-8.994c1.593-.042 2.931 1.235 2.974 2.838l17.3 649.84c.043 1.604-1.226 2.95-2.818 2.993l-337.82 8.993c-1.593.043-2.93-1.234-2.973-2.838z" stroke="#262626" stroke-width=".772"/><path fill-rule="evenodd" clip-rule="evenodd" d="M18.437 657.384L41.124 7.71c.056-1.603 1.405-2.87 2.997-2.814l337.734 11.793c1.592.056 2.849 1.413 2.793 3.017L361.96 669.38c-.055 1.603-1.404 2.869-2.996 2.814L21.23 660.4c-1.592-.056-2.849-1.413-2.793-3.016" fill="#231F20"/><path clip-rule="evenodd" d="M18.437 657.384L41.124 7.71c.056-1.603 1.405-2.87 2.997-2.814l337.734 11.793c1.592.056 2.849 1.413 2.793 3.017L361.96 669.38c-.055 1.603-1.404 2.869-2.996 2.814L21.23 660.4c-1.592-.056-2.849-1.413-2.793-3.016z" stroke="#262626" stroke-width=".772"/><path fill-rule="evenodd" clip-rule="evenodd" d="M4.626 652.265L39.781 3.145c.087-1.6 1.46-2.84 3.05-2.755l337.445 18.276c1.591.086 2.821 1.467 2.735 3.069l-35.156 649.119c-.086 1.602-1.459 2.841-3.049 2.755L7.36 655.334c-1.59-.086-2.82-1.467-2.734-3.069" fill="#231F20"/><path clip-rule="evenodd" d="M4.626 652.265L39.781 3.145c.087-1.6 1.46-2.84 3.05-2.755l337.445 18.276c1.591.086 2.821 1.467 2.735 3.069l-35.156 649.119c-.086 1.602-1.459 2.841-3.049 2.755L7.36 655.334c-1.59-.086-2.82-1.467-2.734-3.069z" stroke="#262626" stroke-width=".772"/><path fill-rule="evenodd" clip-rule="evenodd" d="M40.917 668.922V18.852c0-1.604 1.303-2.917 2.896-2.917h337.94c1.593 0 2.897 1.313 2.897 2.917v650.07c0 1.604-1.304 2.917-2.897 2.917H43.813c-1.593 0-2.896-1.313-2.896-2.917" fill="#231F20"/><path clip-rule="evenodd" d="M40.917 668.922V18.852c0-1.604 1.303-2.917 2.896-2.917h337.94c1.593 0 2.897 1.313 2.897 2.917v650.07c0 1.604-1.304 2.917-2.897 2.917H43.813c-1.593 0-2.896-1.313-2.896-2.917z" stroke="#262626" stroke-width=".772"/><path d="M187.374 341.77l-.234-1.348c-.157-.039-.456-.059-.899-.059h-1.504c-.13 0-.273.007-.429.02h-.469V343.996c.013.378.026.625.039.742.338.039.742.059 1.211.059h1.953c.43 0 .742-.007.937-.02a2.37 2.37 0 00.45-.058l1.035-1.856.84.176-.782 2.832a16.459 16.459 0 00-1.777-.098h-6.699l-.039-.722 1.191-.274c.052-.195.078-1.145.078-2.851v-3.75c0-1.745-.026-2.702-.078-2.871l-1.191-.274.039-.722h6.308c.261 0 .534-.007.821-.02.299-.013.651-.032 1.054-.059l.372 2.559-.86.117-.644-1.621a4.442 4.442 0 00-.762-.058h-2.266a9.23 9.23 0 00-.644.019l-.547.039c0 .052-.007.202-.02.449 0 .235-.006.515-.019.84v2.793c.169.013.325.02.469.02h2.48c.156-.013.274-.026.352-.039l.234-1.368h.801v3.79h-.801zm12.168 4.003h-3.457l-.059-.683.918-.293-1.933-2.637-1.914 2.637.918.293-.039.683h-2.852l-.059-.683.918-.293 2.52-3.223-2.441-3.203-.918-.293.058-.683h3.399l.058.683-.82.293 1.66 2.266 1.68-2.266-.821-.293.039-.683h2.754l.059.683-.918.293-2.285 2.871 2.656 3.555.918.293-.039.683zm4.096.157c-.508 0-.963-.104-1.367-.313a2.736 2.736 0 01-.957-.781 1.785 1.785 0 01-.332-1.016c0-.429.137-.787.41-1.074.287-.286.762-.54 1.426-.762l2.969-.996v-1.015c0-.495-.215-.912-.645-1.25-.429-.339-.95-.508-1.562-.508-.339 0-.567.071-.684.215-.117.13-.182.403-.195.82l-.059.762c-.442.117-.827.11-1.152-.02-.313-.143-.469-.371-.469-.683 0-.274.156-.56.469-.86.325-.299.723-.56 1.191-.781a5.116 5.116 0 011.407-.43c.95 0 1.712.254 2.285.762.586.495.879 1.152.879 1.973l-.039 3.32a6.935 6.935 0 00.117 1.25l1.25.234v.586l-.938.352a6.76 6.76 0 01-.488.156 1.504 1.504 0 01-.391.059c-.39 0-.644-.222-.761-.664l-.118-.528c-.768.795-1.517 1.192-2.246 1.192zm.489-1.114c.612 0 1.165-.286 1.66-.859v-2.07l-2.266.625c-.586.143-.879.481-.879 1.015 0 .339.15.638.449.899.3.26.645.39 1.036.39zm5.214.957l-.039-.683 1.211-.293c.013-.13.026-.332.039-.606.013-.273.026-.768.039-1.484l.02-1.543c.013-.417 0-.84-.039-1.269a12.695 12.695 0 00-.117-.997l-1.25-.273v-.645l2.558-.703.313.293-.098 1.075.059.019c.403-.508.82-.872 1.25-1.094a2.868 2.868 0 011.328-.332c.456 0 .905.13 1.348.391.455.26.82.664 1.093 1.211.43-.56.886-.964 1.367-1.211.482-.261.99-.391 1.524-.391s1.022.13 1.465.391c.442.26.794.638 1.054 1.133.274.481.411 1.074.411 1.777l-.02 2.207c0 .482.007.912.02 1.289.026.365.058.619.097.762l1.211.293-.058.683h-3.809l-.039-.683 1.094-.293c.013-.143.026-.352.039-.625.026-.287.039-.71.039-1.27l.019-2.148c0-.586-.104-1.048-.312-1.387-.195-.351-.443-.599-.742-.742a1.932 1.932 0 00-.899-.234c-.872 0-1.601.41-2.187 1.23.065.339.097.697.097 1.074l.02 2.051c0 .482.006.912.019 1.289.027.365.059.619.098.762l1.172.293-.039.683h-3.75l-.059-.683 1.075-.293c.026-.143.045-.358.058-.645.013-.286.02-.703.02-1.25v-2.168c0-.846-.202-1.445-.606-1.796-.39-.365-.827-.547-1.308-.547-.404 0-.788.097-1.153.293-.364.195-.683.501-.957.918v2.949c0 .612.007 1.107.02 1.484.026.365.052.619.078.762l1.152.293-.058.683h-3.868zm15.606 4.297l-.039-.683 1.211-.293c.013-.13.026-.449.039-.957.013-.495.026-1.224.039-2.188l.039-4.883c0-.39-.02-.794-.059-1.211a9.285 9.285 0 00-.097-.957l-1.25-.273v-.645l2.558-.703.313.293-.098 1.075h.059c.729-.938 1.601-1.407 2.617-1.407.716 0 1.354.183 1.914.547.56.352.996.84 1.309 1.465.312.625.468 1.335.468 2.129 0 .872-.195 1.654-.586 2.344a4.332 4.332 0 01-1.582 1.601c-.664.391-1.412.586-2.246.586-.69 0-1.328-.117-1.914-.351v1.484c0 .508.007.931.02 1.269.013.352.032.612.058.782l1.602.234-.039.742h-4.336zm4.687-5.078c.795 0 1.439-.28 1.934-.84.495-.573.749-1.38.762-2.422.013-.612-.091-1.165-.313-1.66a2.736 2.736 0 00-.898-1.172 2.192 2.192 0 00-1.328-.429c-.847 0-1.563.384-2.149 1.152v4.746c.534.417 1.198.625 1.992.625zm5.411.781l-.039-.703 1.269-.273c.026-.208.046-.593.059-1.152.026-.573.039-1.42.039-2.54v-2.421c0-.495-.007-1.003-.02-1.524 0-.534-.006-1.035-.019-1.504 0-.468-.007-.866-.02-1.191 0-.339-.006-.56-.019-.664l-1.446-.196-.039-.585 2.715-.782.371.254-.039 1.66c-.013.534-.026 1.14-.039 1.817v2.383l-.019 3.183c0 .755.006 1.445.019 2.07.026.612.052 1.01.078 1.192l1.27.273-.039.703h-4.082zm9.121.157c-.742 0-1.419-.17-2.031-.508a3.857 3.857 0 01-1.446-1.445c-.351-.625-.527-1.368-.527-2.227 0-.938.189-1.745.566-2.422.378-.677.866-1.198 1.465-1.562a3.65 3.65 0 011.973-.528c1.002.013 1.784.352 2.344 1.016.572.651.859 1.582.859 2.793v.351h-5.586c.026 1.042.299 1.849.82 2.422.534.56 1.205.84 2.012.84.469 0 .885-.084 1.25-.254.365-.182.716-.482 1.055-.898l.488.43c-.378.677-.846 1.178-1.406 1.503a3.518 3.518 0 01-1.836.489zm-.156-7.91c-.521 0-1.003.214-1.446.644-.429.417-.683 1.042-.762 1.875h4.141v-.137c0-.755-.176-1.341-.527-1.757-.339-.417-.808-.625-1.406-.625z" fill="#FEFEFE"/></svg>
