<svg width="393" height="684" fill="none" xmlns="http://www.w3.org/2000/svg"><path fill-rule="evenodd" clip-rule="evenodd" d="M391.637 342c0-188.329-44.54-341-99.483-341-54.943 0-99.483 152.671-99.483 341s44.54 341 99.483 341c54.943 0 99.483-152.671 99.483-341" fill="#262626"/><path clip-rule="evenodd" d="M391.637 342c0-188.329-44.54-341-99.483-341-54.943 0-99.483 152.671-99.483 341s44.54 341 99.483 341c54.943 0 99.483-152.671 99.483-341z" stroke="#262626" stroke-width="2"/><path fill-rule="evenodd" clip-rule="evenodd" d="M62.523 29.155c-2.43 1.556-2.176 3.048-3.504 5.058-4.974 7.528-8.953 16.295-12.835 24.406-9.53 19.903-18.7 37.502-23.777 58.991-4.247 17.965-11.76 34.972-13.404 53.384a730.793 730.793 0 01-3.087 28.16C3.47 218.21 4.902 237.116 3.9 256.246c-1.053 20.118-3.623 39.781-2.979 60 .465 14.542 1.256 29.152 1.854 43.698 1.045 25.428 6.1 50.39 6.666 75.82.579 26.021 4.701 50.384 11.347 75.463 6.543 24.693 14.478 51.375 26.305 74.17 3.225 6.218 8.403 11.36 10.51 18.072 2.325 7.404 2.914 9.816 6.913 16.249 9.626 15.492 15.511 16.48 32.927 19.151 16.658 2.554 31.467-1.511 47.855-5.22 14.01-3.171 29.577-6.927 42.045-14.332 17.623-10.468 26.26-26.317 32.817-45.082 7.168-20.519 10.347-39.291 12.523-60.92 4.078-40.556 7.459-81.52 10.557-122.158 4.48-58.774-4.424-116.428-15.09-174.019-6.225-33.613-8.981-67.534-19.755-100.075-3.533-10.678-6.726-25.332-14.114-34.24-3.447-4.437-7.893-7.322-13.338-8.658a104.683 104.683 0 01-13.803-10.48c-17.035-12.673-34.25-19.665-55.347-20.472-18.756-.718-38.922-4.815-57.358-.05-2.613.675-10.666 1.59-11.869 5.21-1.428 4.288 4.706 3.774 6.646 3.554 7.893-.893 12.303-10.664 19.313-13.352 8.932-3.426 23.316-.415 32.832-1.369 20.145-2.022 38.07-2.862 58.09-1.415 22.428 1.621 45.676.145 67.873 3.333 20.816 2.99 41.56 1.367 62.39 3.774 5.711.66 14.779-1.227 19.043 2.058 4.109 3.166 5.236 9.892 6.431 14.422 3.922 14.867 12.151 26.744 23.079 37.36 18.098 17.581 37.159 39.12 41.111 64.773 2.173 14.121 4.404 28.162 6.177 42.347 3.264 26.116 8.468 53.649 5.601 80.09-1.418 13.088-5.216 25.943-7.485 38.891-2.68 15.285-3.761 30.551-4.412 46.04-.808 19.289.983 38.596-2.685 57.702-3.215 16.748-14.512 33.138-22.84 47.949-5.166 9.189-7.092 19.078-8.705 29.415-1.664 10.66-4.803 20.069-8.522 30.214-4.509 12.295-6.784 26.391-13.831 37.327-2.951 4.579-7.743 8.004-9.905 13.235-.658 1.592-.486 4.184-1.199 5.452-1.854.858-3.266 2.213-4.236 4.066-2.832 4.08-2.411 8.146-6.319 12.074-4.152 4.172-7.769 5.779-13.066 7.115-14.237 3.592-28.556 2.378-43.135 2.388-21.132.015-42.268.078-63.398.006-8.541-.029-16.924.032-25.223 1.761-3.043.634-7.338 2.383-10.486 2.148 1.978 1.829.107 1 4.261 1.154 9.202.34 22.086-3.046 30.912-5.474 9.458-2.602 19.122-7.569 24.94-15.781 7.016-9.902 6.592-19.02 21.002-17.155-2.746 4.436-8.24 9.726-6.735 15.334 7.086-.021 6.823 9.442 13.686 10.735 12.647 2.383 26.482-12.063 32.47-20.739 6.49-9.4 6.343-21.546 3.177-32.402-1.526-5.233-6.69-15.212-13.069-15.297 2.151 3.079 5.033 1.26 9.047-.436 15.943-6.738 21.434-25.537 20.258-41.533-.871-11.853-5.967-17.176-17.938-16.938-8.693.172-18.675 3.814-21.506 12.927 4.139 5.523 15 4.7 20.415 1.702 7.603-4.212 10.378-13.652 11.656-21.476.381-3.198.76-6.395 1.138-9.593a162.36 162.36 0 015.729-19.518c.062-6.275-1.717-6.719-8.578-9.419-13.219-5.203-27.392 6.669-8.351 12.307 9.336 2.765 20.01 5.276 29.543 1.798 14.791-5.396 11.888-23.338 12.093-36.253.1-6.247 2.068-21.632-7.049-24.369-3.252-.976-13.363-.468-16.406 1.324-5.305 3.127-6.981 6.239-1.188 11.436 10.59 9.502 35.703 1.9 41.787-9.7l.936-15.202c.762-13.834.053-27.58-2.125-41.239-3.756-9.204-15.328-18.492-26.129-15.181-4.283 1.312-7.98 3.768-7.435 8.724 1.148 10.433 24.321 7.581 30.288 6.761 4.947-11.135 6.789-22.916 5.525-35.344l1.339-31.969c5.082-14.79 2.375-26.789-8.119-35.996-15.776 4.526-46.888 12.646-43.12 34.195 22.043 5.243 50.265 5.193 45.806-25.581-3.326-22.951-40.827-72.112-61.862-38.46 4.365 6.794 10.831 9.478 19.396 8.054 15.127-.548 24.108-8.548 26.944-24.001 4.869-17.997.739-33.224-12.392-45.682-10.068-7.199-31.739-9.59-39.938.912 3.367 5.171 8.155 8.472 14.36 9.905 18.709 4.714 17.562-16.786 16.027-29.428-.155-15.476-6.337-27.396-18.548-35.758-7.862-3.452-20.603-1.979-28.868-.278-1.637 4.555-.223 8.377 4.24 11.466 5.582 4.627 11.314 4.874 17.201.74 1.994-16.442-2.145-31.424-18.082-40.184-8.381-4.607-31.104-9.974-38.004.87 2.793 7.1 13.701 5.024 19.254 4.88 4.164-15.408-16.172-27.896-29.168-18.438 3.934-2.153 7.268.684 6.352-4.959-.506-3.13-7.428-9.715-9.045-5.18 2.228-.384 2.13-2.576 1.912-5.343-.719-9.119-10.735-11.195-18.248-11.959-28.698-2.92-6.448 22.958-1.123 19.367-4.262-7.787-18.144-12.52-24.812-4.528-2.123 2.546-4.434 11.028.952 11.335l.395-1.573" fill="#262626"/><path d="M62.523 29.155c-2.43 1.556-2.176 3.048-3.504 5.058-4.974 7.528-8.953 16.295-12.835 24.406-9.53 19.903-18.7 37.502-23.777 58.991-4.247 17.965-11.76 34.972-13.404 53.384a730.793 730.793 0 01-3.087 28.16C3.47 218.21 4.902 237.116 3.9 256.246c-1.053 20.118-3.623 39.781-2.979 60 .465 14.542 1.256 29.152 1.854 43.698 1.045 25.428 6.1 50.39 6.666 75.82.579 26.021 4.701 50.384 11.347 75.463 6.543 24.693 14.478 51.375 26.305 74.17 3.225 6.218 8.403 11.36 10.51 18.072 2.325 7.404 2.914 9.816 6.913 16.249 9.626 15.492 15.511 16.48 32.927 19.151 16.658 2.554 31.467-1.511 47.855-5.22 14.01-3.171 29.577-6.927 42.045-14.332 17.623-10.468 26.26-26.317 32.817-45.082 7.168-20.519 10.347-39.291 12.523-60.92 4.078-40.556 7.459-81.52 10.557-122.158 4.48-58.774-4.424-116.428-15.09-174.019-6.225-33.613-8.981-67.534-19.755-100.075-3.533-10.678-6.726-25.332-14.114-34.24-3.447-4.437-7.893-7.322-13.338-8.658a104.683 104.683 0 01-13.803-10.48c-17.035-12.673-34.25-19.665-55.347-20.472-18.756-.718-38.922-4.815-57.358-.05-2.613.675-10.666 1.59-11.869 5.21-1.428 4.288 4.706 3.774 6.646 3.554 7.893-.893 12.303-10.664 19.313-13.352 8.932-3.426 23.316-.415 32.832-1.369 20.145-2.022 38.07-2.862 58.09-1.415 22.428 1.621 45.676.145 67.873 3.333 20.816 2.99 41.56 1.367 62.39 3.774 5.711.66 14.779-1.227 19.043 2.058 4.109 3.166 5.236 9.892 6.431 14.422 3.922 14.867 12.151 26.744 23.079 37.36 18.098 17.581 37.159 39.12 41.111 64.773 2.173 14.121 4.404 28.162 6.177 42.347 3.264 26.116 8.468 53.649 5.601 80.09-1.418 13.088-5.216 25.943-7.485 38.891-2.68 15.285-3.761 30.551-4.412 46.04-.808 19.289.983 38.596-2.685 57.702-3.215 16.748-14.512 33.138-22.84 47.949-5.166 9.189-7.092 19.078-8.705 29.415-1.664 10.66-4.803 20.069-8.522 30.214-4.509 12.295-6.784 26.391-13.831 37.327-2.951 4.579-7.743 8.004-9.905 13.235-.658 1.592-.486 4.184-1.199 5.452-1.854.858-3.266 2.213-4.236 4.066-2.832 4.08-2.411 8.146-6.319 12.074-4.152 4.172-7.769 5.779-13.066 7.115-14.237 3.592-28.556 2.378-43.135 2.388-21.132.015-42.268.078-63.398.006-8.541-.029-16.924.032-25.223 1.761-3.043.634-7.338 2.383-10.486 2.148 1.978 1.829.107 1 4.261 1.154 9.202.34 22.086-3.046 30.912-5.474 9.458-2.602 19.122-7.569 24.94-15.781 7.016-9.902 6.592-19.02 21.002-17.155-2.746 4.436-8.24 9.726-6.735 15.334 7.086-.021 6.823 9.442 13.686 10.735 12.647 2.383 26.482-12.063 32.47-20.739 6.49-9.4 6.343-21.546 3.177-32.402-1.526-5.233-6.69-15.212-13.069-15.297 2.151 3.079 5.033 1.26 9.047-.436 15.943-6.738 21.434-25.537 20.258-41.533-.871-11.853-5.967-17.176-17.938-16.938-8.693.172-18.675 3.814-21.506 12.927 4.139 5.523 15 4.7 20.415 1.702 7.603-4.212 10.378-13.652 11.656-21.476.381-3.198.76-6.395 1.138-9.593a162.36 162.36 0 015.729-19.518c.062-6.275-1.717-6.719-8.578-9.419-13.219-5.203-27.392 6.669-8.351 12.307 9.336 2.765 20.01 5.276 29.543 1.798 14.791-5.396 11.888-23.338 12.093-36.253.1-6.247 2.068-21.632-7.049-24.369-3.252-.976-13.363-.468-16.406 1.324-5.305 3.127-6.981 6.239-1.188 11.436 10.59 9.502 35.703 1.9 41.787-9.7l.936-15.202c.762-13.834.053-27.58-2.125-41.239-3.756-9.204-15.328-18.492-26.129-15.181-4.283 1.312-7.98 3.768-7.435 8.724 1.148 10.433 24.321 7.581 30.288 6.761 4.947-11.135 6.789-22.916 5.525-35.344l1.339-31.969c5.082-14.79 2.375-26.789-8.119-35.996-15.776 4.526-46.888 12.646-43.12 34.195 22.043 5.243 50.265 5.193 45.806-25.581-3.326-22.951-40.827-72.112-61.862-38.46 4.365 6.794 10.831 9.478 19.396 8.054 15.127-.548 24.108-8.548 26.944-24.001 4.869-17.997.739-33.224-12.392-45.682-10.068-7.199-31.739-9.59-39.938.912 3.367 5.171 8.155 8.472 14.36 9.905 18.709 4.714 17.562-16.786 16.027-29.428-.155-15.476-6.337-27.396-18.548-35.758-7.862-3.452-20.603-1.979-28.868-.278-1.637 4.555-.223 8.377 4.24 11.466 5.582 4.627 11.314 4.874 17.201.74 1.994-16.442-2.145-31.424-18.082-40.184-8.381-4.607-31.104-9.974-38.004.87 2.793 7.1 13.701 5.024 19.254 4.88 4.164-15.408-16.172-27.896-29.168-18.438 3.934-2.153 7.268.684 6.352-4.959-.506-3.13-7.428-9.715-9.045-5.18 2.228-.384 2.13-2.576 1.912-5.343-.719-9.119-10.735-11.195-18.248-11.959-28.698-2.92-6.448 22.958-1.123 19.367-4.262-7.787-18.144-12.52-24.812-4.528-2.123 2.546-4.434 11.028.952 11.335l.395-1.573" stroke="#262626" stroke-width="1.5"/><path d="M181.554 332.309h4.727c2.057 0 3.659.494 4.805 1.484 1.159.977 1.738 2.35 1.738 4.121 0 1.146-.267 2.162-.801 3.047a5.52 5.52 0 01-2.226 2.07c-.951.495-2.045.742-3.282.742h-4.961l-.039-.742 1.192-.273c.026-.117.045-.449.058-.996.026-.547.039-1.172.039-1.875v-3.672c0-.781-.013-1.439-.039-1.973-.013-.534-.032-.84-.058-.918l-1.192-.273.039-.742zm2.95 1.054c0 .13-.007.3-.02.508 0 .195-.006.475-.019.84V341c.013.339.026.645.039.918.026.273.045.501.058.684.417.052.788.097 1.114.136.338.026.664.039.976.039 1.38 0 2.428-.364 3.145-1.093.716-.743 1.074-1.81 1.074-3.204 0-.846-.104-1.595-.313-2.246-.208-.651-.52-1.198-.937-1.64a3.67 3.67 0 00-1.504-1.016c-.586-.234-1.27-.351-2.051-.351a7.48 7.48 0 00-.742.039c-.26.013-.534.045-.82.097zm14.257 10.567c-.755 0-1.438-.17-2.05-.508a3.68 3.68 0 01-1.446-1.445c-.351-.638-.527-1.387-.527-2.247 0-.924.189-1.725.566-2.402.378-.677.873-1.198 1.485-1.562a3.556 3.556 0 011.972-.547c1.016.013 1.81.351 2.383 1.015.573.651.86 1.589.86 2.813v.351h-5.996v-.859h4.707l-.215.254v-.41c0-.742-.17-1.315-.508-1.719-.326-.417-.788-.625-1.387-.625-.364 0-.716.111-1.054.332-.339.208-.612.534-.821.977-.208.429-.312.976-.312 1.64v.235c0 1.067.26 1.901.781 2.5.534.599 1.217.898 2.051.898.469 0 .879-.085 1.23-.254.365-.182.716-.482 1.055-.898l.488.449c-.364.677-.827 1.185-1.387 1.523a3.653 3.653 0 01-1.875.489zm7.774 0c-.482 0-.964-.052-1.445-.157a5.156 5.156 0 01-1.231-.449l-.098-2.09h.958l.39 1.407c.43.312.951.468 1.563.468.429 0 .781-.104 1.054-.312.287-.221.43-.514.43-.879 0-.352-.124-.651-.371-.898-.247-.248-.729-.521-1.445-.821-.925-.403-1.576-.794-1.954-1.172-.377-.377-.566-.853-.566-1.425 0-.469.137-.879.41-1.231.287-.364.677-.644 1.172-.84.495-.208 1.068-.312 1.719-.312.364 0 .736.032 1.113.097.378.052.69.137.938.254l.214 2.032h-.917l-.469-1.329a1.533 1.533 0 00-.469-.175 2.128 2.128 0 00-.586-.078c-.456 0-.82.11-1.094.332a.982.982 0 00-.41.82c0 .39.15.71.449.957.3.234.827.527 1.582.879.86.39 1.459.775 1.797 1.152.339.378.508.833.508 1.367 0 .703-.306 1.283-.918 1.739-.612.442-1.387.664-2.324.664zm4.551-.157l-.039-.722 1.308-.274c.013-.052.02-.143.02-.273.013-.13.026-.339.039-.625.013-.287.019-.684.019-1.191v-1.29c0-.546-.013-1.041-.039-1.484a10.379 10.379 0 00-.097-1.016l-1.309-.273v-.645l2.773-.722.293.273c-.039.404-.071.801-.097 1.192-.013.39-.02.846-.02 1.367v2.461c0 .599.007 1.094.02 1.484.026.391.052.638.078.742l1.309.274-.04.722h-4.218zm2.109-10.722c-.338 0-.625-.111-.859-.332a1.083 1.083 0 01-.352-.821c0-.312.117-.579.352-.8.234-.235.521-.352.859-.352.339 0 .619.117.84.352.221.221.332.488.332.8a1.139 1.139 0 01-1.172 1.153zm7.149 15.176c-1.198 0-2.149-.196-2.852-.586-.703-.391-1.055-.912-1.055-1.563 0-.443.176-.853.528-1.23.351-.378.918-.762 1.699-1.153l.742.157c-.43.26-.762.553-.996.878a1.776 1.776 0 00-.352 1.055c0 .521.209.925.625 1.211.417.287.996.43 1.739.43.833 0 1.51-.183 2.031-.547.534-.365.801-.833.801-1.406 0-.443-.157-.775-.469-.996-.313-.209-.84-.339-1.582-.391l-2.09-.176-.293-.078c-.469 0-.872-.124-1.211-.371-.338-.26-.508-.573-.508-.938 0-.351.17-.696.508-1.035.339-.338.807-.638 1.406-.898l.254.39a2.7 2.7 0 00-.547.469c-.117.13-.175.261-.175.391 0 .182.078.338.234.469.169.117.404.195.703.234l2.52.254c.898.091 1.582.319 2.05.683.469.365.704.886.704 1.563 0 .599-.196 1.139-.586 1.621-.391.482-.918.859-1.582 1.133-.664.286-1.413.43-2.246.43zm.156-6.875c-.69 0-1.309-.124-1.856-.372a2.979 2.979 0 01-1.25-1.035 2.59 2.59 0 01-.449-1.484c0-.625.156-1.178.469-1.66.312-.482.735-.86 1.269-1.133a3.746 3.746 0 011.797-.43c.664 0 1.257.13 1.778.391.52.26.931.625 1.23 1.094.313.455.469.976.469 1.562 0 .573-.156 1.094-.469 1.563-.299.455-.716.82-1.25 1.093-.521.274-1.1.411-1.738.411zm.097-.782c.534 0 .957-.195 1.27-.586.312-.39.469-.911.469-1.562 0-.742-.176-1.328-.528-1.758a1.61 1.61 0 00-1.347-.664c-.534 0-.97.208-1.309.625-.338.404-.508.944-.508 1.621s.176 1.237.528 1.68c.364.429.839.644 1.425.644zm4.532-3.925l-2.325-.157-.761-.781 3.086-.312v1.25zm.937 7.128l-.039-.703 1.211-.293c.013-.091.02-.215.02-.371a19.259 19.259 0 00.058-1.718l.02-1.504c0-.43-.02-.86-.059-1.289a9.93 9.93 0 00-.098-.997l-1.25-.273v-.645l2.618-.722.332.312-.098 1.035.059.02c.455-.495.905-.853 1.347-1.074a3.181 3.181 0 011.446-.332c.481 0 .931.123 1.347.371.43.234.775.605 1.035 1.113.274.495.411 1.12.411 1.875v2.168c0 .469.006.892.019 1.27.026.377.059.631.098.761l1.211.293-.059.703h-3.926l-.039-.703 1.133-.293a7.569 7.569 0 00.059-.996c.013-.247.019-.547.019-.898v-2.11c0-.585-.104-1.048-.312-1.386-.196-.352-.443-.599-.743-.742a1.952 1.952 0 00-.917-.235c-.43 0-.827.104-1.192.313a2.977 2.977 0 00-.957.898v2.93c0 .612.007 1.1.02 1.465.026.364.052.618.078.761l1.211.293-.059.703h-4.004z" fill="#FEFEFE"/></svg>
