<svg width="33" height="37" fill="none" xmlns="http://www.w3.org/2000/svg"><path d="M15.534.297c-.337.787 0 1.46-.113 2.247-.449 1.91-2.022 3.146-2.696 4.831-.449 1.011-.224 1.348-1.01 2.36-.675.898-1.461 1.797-2.135 2.583-.674.786-1.011 1.123-2.022 1.798-.45.337-.787.786-1.124 1.235-.674.45-4.606 5.954-4.943 7.303-.337 1.685-.786 4.83-.225 6.628.562 1.91 1.573 3.595 3.37 4.83 2.36 1.685 4.944 1.573 8.09 1.573 5.616 0 11.458.786 15.952-1.797.786-.45 2.92-3.82 3.145-4.606.675-1.91-.224-5.168-1.123-6.628-2.92-4.607-6.291-8.763-8.65-13.594-.899-1.797-2.921-2.808-4.045-4.606" fill="#DDE8F2"/><path d="M15.534.297c-.337.787 0 1.46-.113 2.247-.449 1.91-2.022 3.146-2.696 4.831-.449 1.011-.224 1.348-1.01 2.36-.675.898-1.461 1.797-2.135 2.583-.674.786-1.011 1.123-2.022 1.798-.45.337-.787.786-1.124 1.235-.674.45-4.606 5.954-4.943 7.303-.337 1.685-.786 4.83-.225 6.628.562 1.91 1.573 3.595 3.37 4.83 2.36 1.685 4.944 1.573 8.09 1.573 5.616 0 11.458.786 15.952-1.797.786-.45 2.92-3.82 3.145-4.606.675-1.91-.224-5.168-1.123-6.628-2.92-4.607-6.291-8.763-8.65-13.594-.899-1.797-2.921-2.808-4.045-4.606" stroke="#262626" stroke-miterlimit="10"/></svg>