<svg width="32" height="48" fill="none" xmlns="http://www.w3.org/2000/svg"><mask id="a" fill="#fff"><path d="M10.581.81c.225 1.236-.561 3.932-1.01 5.055-.675 1.91-2.135 4.27-3.146 6.067-2.472 4.381-3.932 9.324-4.606 14.155-.787 4.83-2.247 8.875-1.236 13.818 1.348 6.516 9.1 8.65 15.166 7.976 6.179-.562 15.166-5.167 15.728-12.02.225-2.809.112-4.606-1.011-7.078-.45-1.123-.674-2.247-1.348-3.37-1.011-1.573-2.022-2.584-3.034-4.044-.674-1.124-1.572-2.023-2.583-2.921-1.348-1.124-1.46-1.685-2.472-3.146-1.123-1.573-3.145-2.247-4.157-3.932-.786-1.236-.561-1.91-2.022-2.92-1.348-1.012-2.134-1.236-3.033-2.697-.674-1.123-1.011-2.471-2.022-3.258"/></mask><path d="M10.581.81c.225 1.236-.561 3.932-1.01 5.055-.675 1.91-2.135 4.27-3.146 6.067-2.472 4.381-3.932 9.324-4.606 14.155-.787 4.83-2.247 8.875-1.236 13.818 1.348 6.516 9.1 8.65 15.166 7.976 6.179-.562 15.166-5.167 15.728-12.02.225-2.809.112-4.606-1.011-7.078-.45-1.123-.674-2.247-1.348-3.37-1.011-1.573-2.022-2.584-3.034-4.044-.674-1.124-1.572-2.023-2.583-2.921-1.348-1.124-1.46-1.685-2.472-3.146-1.123-1.573-3.145-2.247-4.157-3.932-.786-1.236-.561-1.91-2.022-2.92-1.348-1.012-2.134-1.236-3.033-2.697-.674-1.123-1.011-2.471-2.022-3.258" fill="#70CCF7"/><path d="M9.57 5.865l-.928-.371-.008.02-.007.019.943.332zm-3.145 6.067l.87.491h.001l-.871-.491zM1.819 26.087l.987.16.002-.01.001-.012-.99-.138zM.583 39.905l-.98.2v.003l.98-.203zm15.166 7.976l-.09-.996-.01.001-.01.001.11.994zm15.728-12.02l.997.081v-.002l-.997-.08zm-1.011-7.078l-.929.371.009.022.01.02.91-.413zm-1.348-3.37l.857-.515-.008-.013-.008-.013-.841.54zm-3.034-4.044l-.857.514.017.028.018.027.822-.57zm-2.583-2.921l.664-.748-.012-.01-.012-.01-.64.768zm-2.472-3.146l.822-.57-.004-.005-.004-.006-.814.581zm-4.157-3.932l.858-.514-.007-.012-.007-.01-.844.536zM14.85 8.45l-.6.8.015.01.016.011.57-.822zm-3.033-2.697l-.857.515.005.01.852-.525zM9.597.99c.072.392-.017 1.19-.243 2.165-.214.924-.508 1.83-.712 2.34l1.857.743c.245-.613.569-1.617.804-2.631.223-.964.416-2.132.262-2.975L9.597.99zm-.97 4.544c-.636 1.801-2.021 4.037-3.074 5.909l1.743.98c.97-1.724 2.505-4.206 3.217-6.224l-1.886-.665zM5.554 11.44C3.009 15.953 1.516 21.02.828 25.95l1.981.276c.66-4.733 2.089-9.55 4.487-13.802l-1.742-.982zM.832 25.927C.639 27.11.404 28.25.172 29.39c-.231 1.133-.461 2.27-.634 3.415-.348 2.303-.472 4.676.065 7.301l1.96-.4c-.474-2.318-.374-4.438-.047-6.602.164-1.087.383-2.176.615-3.314.231-1.131.474-2.31.675-3.541l-1.974-.322zM-.396 40.108c.757 3.658 3.317 6.041 6.389 7.396 3.055 1.348 6.692 1.724 9.867 1.371l-.221-1.988c-2.892.322-6.164-.033-8.839-1.213-2.657-1.172-4.647-3.114-5.238-5.972l-1.958.406zm16.236 8.77c3.261-.297 7.213-1.649 10.438-3.818 3.21-2.16 5.88-5.26 6.196-9.118l-1.994-.163c-.245 2.995-2.35 5.625-5.319 7.621-2.954 1.988-6.585 3.22-9.503 3.485l.182 1.992zM32.474 35.94c.232-2.906.12-4.89-1.098-7.57l-1.82.827c1.028 2.263 1.14 3.873.924 6.584l1.994.16zm-1.08-7.528c-.215-.538-.357-1.023-.574-1.644-.206-.589-.457-1.223-.845-1.87l-1.715 1.03c.287.477.485.965.672 1.5.176.503.371 1.141.605 1.726l1.857-.742zm-1.435-3.54c-.535-.832-1.067-1.511-1.577-2.148-.514-.643-.994-1.23-1.475-1.925l-1.645 1.139c.53.765 1.061 1.414 1.558 2.035.502.627.98 1.24 1.457 1.98l1.682-1.08zm-3.017-4.018c-.754-1.256-1.745-2.236-2.777-3.154l-1.329 1.495c.99.88 1.797 1.698 2.391 2.688l1.715-1.029zm-2.801-3.175c-1.209-1.007-1.18-1.343-2.29-2.946l-1.644 1.138c.912 1.318 1.166 2.105 2.653 3.345l1.28-1.537zm-2.298-2.958c-.672-.94-1.603-1.598-2.337-2.145-.782-.583-1.385-1.068-1.776-1.72l-1.715 1.029c.62 1.033 1.534 1.727 2.296 2.295.811.605 1.452 1.07 1.904 1.703l1.628-1.162zm-4.127-3.888a5.18 5.18 0 01-.372-.704c-.088-.2-.21-.501-.335-.75-.303-.606-.726-1.154-1.59-1.752l-1.138 1.644c.597.414.792.708.939 1.002.1.2.16.361.296.668.125.28.28.601.513.966l1.687-1.074zM15.45 7.65c-1.53-1.148-2.015-1.175-2.781-2.42l-1.704 1.048c1.032 1.676 2.12 2.098 3.285 2.972l1.2-1.6zm-2.775-2.41c-.322-.536-.499-1.007-.853-1.697-.315-.616-.733-1.307-1.413-1.836L9.18 3.284c.33.258.587.634.861 1.17.236.46.565 1.225.918 1.814l1.715-1.03z" fill="#262626" mask="url(#a)"/></svg>