<svg width="37" height="37" fill="none" xmlns="http://www.w3.org/2000/svg"><mask id="a" fill="#fff"><path d="M1.32.562c4.943-.225 9.886 1.572 14.83.45 2.359-.563 4.605-.338 7.19-.113 2.134.224 4.942.45 7.189.112.899-.112 1.573-.45 2.472-.45 1.01 0 1.91.45 2.92.45 1.349 11.684.337 23.929.562 35.725-2.022.45-4.269-.674-6.291-1.124-2.022-.449-3.932-1.348-5.954-1.685-3.258-.562-6.291-1.123-9.55-1.46-3.257-.337-6.403-.337-9.66-.337-1.012 0-3.258-.45-4.045.224.112-1.348.337-2.471.562-3.82.337-2.134.45-4.156.674-6.29.225-2.36-.337-4.719-.337-7.078V6.403c0-2.022-.337-4.493.45-6.403"/></mask><path d="M1.32.562c4.943-.225 9.886 1.572 14.83.45 2.359-.563 4.605-.338 7.19-.113 2.134.224 4.942.45 7.189.112.899-.112 1.573-.45 2.472-.45 1.01 0 1.91.45 2.92.45 1.349 11.684.337 23.929.562 35.725-2.022.45-4.269-.674-6.291-1.124-2.022-.449-3.932-1.348-5.954-1.685-3.258-.562-6.291-1.123-9.55-1.46-3.257-.337-6.403-.337-9.66-.337-1.012 0-3.258-.45-4.045.224.112-1.348.337-2.471.562-3.82.337-2.134.45-4.156.674-6.29.225-2.36-.337-4.719-.337-7.078V6.403c0-2.022-.337-4.493.45-6.403" fill="#3EB549"/><path d="M16.15 1.011l.22.975.01-.002-.23-.973zM23.34.9l.104-.995h-.01l-.008-.002-.087.997zm7.189.112L30.405.02l-.012.001-.012.002.148.99zm5.392 0l.994-.115-.102-.885h-.892v1zm.562 35.725l.217.976.798-.178-.015-.817-1 .019zm-12.245-2.809l-.17.986h.005l.165-.986zM.983 32.354l-.996-.083-.203 2.428 1.85-1.585-.65-.76zm.562-3.82l.986.165.002-.008-.988-.156zm.674-6.29l.994.104.001-.01-.995-.094zM1.366 1.56c2.368-.108 4.721.268 7.256.556 2.487.283 5.102.47 7.749-.13L15.928.035c-2.296.522-4.624.373-7.08.094C6.439-.144 3.85-.554 1.275-.437l.09 1.998zm15.015.423c2.172-.517 4.25-.317 6.872-.089l.173-1.993c-2.546-.22-4.963-.47-7.508.136l.463 1.946zm6.854-.09c2.128.223 5.054.464 7.442.106L30.381.022c-2.105.316-4.796.108-6.937-.118l-.21 1.99zm7.418.11c.526-.066 1-.201 1.354-.29.375-.093.67-.152.994-.152v-2c-.576 0-1.067.11-1.479.212-.432.108-.745.198-1.117.245l.248 1.984zm2.348-.442c.37 0 .736.081 1.231.198.46.108 1.05.251 1.69.251v-2c-.372 0-.738-.082-1.232-.198-.46-.108-1.05-.251-1.69-.251v2zm1.927-.436c.667 5.778.752 11.71.696 17.696-.056 5.964-.253 12.017-.14 17.933l1.999-.038c-.112-5.88.084-11.848.14-17.876.057-6.008-.027-12.04-.708-17.945l-1.987.23zm1.338 34.634c-.772.171-1.648.054-2.674-.216-.509-.134-1.017-.294-1.555-.46a21.623 21.623 0 00-1.628-.448l-.434 1.953c.463.102.95.246 1.476.408.514.157 1.074.334 1.632.481 1.109.292 2.367.512 3.617.234l-.434-1.952zm-5.857-1.124c-.951-.211-1.878-.529-2.882-.858-.982-.323-2.03-.655-3.125-.837l-.329 1.973c.928.154 1.846.44 2.83.764.962.316 2.001.672 3.072.91l.434-1.952zm-6.001-1.694c-3.241-.559-6.316-1.128-9.616-1.47l-.206 1.99c3.216.332 6.207.886 9.482 1.45l.34-1.97zm-9.616-1.47c-3.318-.343-6.514-.342-9.765-.342v2c3.266 0 6.36 0 9.559.331l.206-1.989zm-9.765-.342c-.2 0-.481-.023-.861-.056-.36-.031-.786-.069-1.21-.084a7.023 7.023 0 00-1.306.057c-.41.064-.914.202-1.318.548l1.302 1.519c-.01.009.061-.05.325-.091.246-.038.56-.047.926-.034.364.013.738.045 1.108.077.35.03.729.064 1.034.064v-2zM1.98 32.438c.108-1.295.32-2.355.551-3.739L.558 28.37c-.218 1.313-.455 2.5-.571 3.901l1.993.166zm.553-3.747c.342-2.166.463-4.273.68-6.343l-1.989-.209c-.231 2.2-.335 4.137-.667 6.24l1.976.312zm.681-6.352c.122-1.282.03-2.543-.084-3.729-.115-1.213-.248-2.326-.248-3.444h-2c0 1.241.148 2.488.257 3.634.112 1.173.187 2.271.084 3.349l1.991.19zm-.332-7.173v-.017-.017-.017-.017-.017-.018-.017-.017-.017-.017-.017-.017-.017-.018-.017-.017-.017-.017-.017-.017-.017-.017-.017-.018-.017-.017-.017-.017-.017-.017-.017-.018-.017-.017-.017-.017-.017-.017-.017-.017-.018-.017-.017-.017-.017-.017-.017-.017-.018-.017-.017-.017-.017-.017-.017-.017-.017-.018-.017-.017-.017-.017-.017-.017-.017-.017-.018-.017-.017-.017-.017-.017-.017-.017-.018-.017-.017-.017-.017-.017-.017-.017-.017-.018-.017-.017-.017-.017-.017-.017-.017-.017-.018-.017-.017-.017-.017-.017-.017-.017-.017-.018-.017-.017-.017-.017-.017-.017-.017-.018-.017-.017-.017-.017-.017-.017-.017-.017-.018-.017-.017-.017-.017-.017-.017-.017-.017-.018-.017-.017-.017-.017-.017-.017-.017-.017-.018-.017-.017-.017-.017-.017-.017-.017-.018-.017-.017-.017-.017-.017-.017-.017-.017-.018-.017-.017-.017-.017-.017-.017-.017-.017-.018-.017-.017-.017-.017-.017-.017-.017-.018-.017-.017-.017-.017-.017-.017-.017-.017-.018-.017-.017-.017-.017V12v-.017-.017-.017-.018-.017-.017-.017-.017-.017-.017-.017-.017-.018-.017-.017-.017-.017-.017-.017-.017-.018-.017-.017-.017-.017-.017-.017-.017-.017-.018-.017-.017-.017-.017-.017-.017-.017-.017-.018-.017-.017-.017-.017-.017-.017-.017-.017-.018-.017-.017-.017-.017-.017-.017-.017-.018-.017-.017-.017-.017-.017-.017-.017-.017-.018-.017-.017-.017-.017-.017-.017-.017-.017-.018-.017-.017-.017-.017-.017-.017-.017-.018-.017-.017-.017-.017-.017-.017-.017-.017-.018-.017-.017-.017-.017-.017-.017-.017-.017-.017-.018-.017-.017-.017-.017-.017-.017-.017-.018-.017-.017-.017-.017-.017-.017-.017-.017-.018-.017-.017-.017-.017-.017-.017-.017-.018-.017-.017-.017-.017-.017-.017-.017-.017-.018-.017-.017-.017-.017-.017-.017-.017-.017-.018-.017-.017-.017-.017-.017-.017-.017-.017-.018-.017-.017-.017-.017-.017-.017-.017-.018-.017-.017-.017-.017-.017-.017-.017-.017-.018-.017-.017-.017-.017-.017-.017-.017-.017-.018-.017-.017-.017-.017-.017-.017-.017V8.8v-.018-.017-.017-.017-.017-.017-.017-.017-.018-.017-.017-.017-.017-.017-.017-.017-.017-.018-.017-.017-.017-.017-.017-.017-.017-.017-.018-.017-.017-.017-.017-.017-.017-.017V8.2v-.018-.017-.017-.017-.017-.017-.017-.017-.018-.017-.017-.017-.017-.017-.017-.017-.017-.018-.017-.017-.017-.017-.017-.017-.017-.017-.018-.017-.017-.017-.017-.017-.017-.017V7.6v-.017-.017-.017-.017-.017-.017-.017-.017-.018-.017-.017-.017-.017-.017-.017-.017-.017-.018-.017-.017-.017-.017-.017-.017-.017-.017-.018-.017-.017-.017-.017-.017-.017-.017-.018-.017-.017-.017-.017-.017V6.9v-.017-.017-.018-.017-.017-.017-.017-.017-.017-.017-.017-.018-.017-.017-.017-.017-.017-.017-.017-.017-.018-.017-.017-.017-.017-.017-.017-.017-.018h-2V15.166h2zm0-8.763c0-.527-.022-1.082-.041-1.62a33.707 33.707 0 01-.03-1.61c.014-1.068.124-2.013.445-2.792l-1.85-.762C.942.75.827 1.995.813 3.147c-.008.581.01 1.161.03 1.707.02.554.04 1.066.04 1.55h2z" fill="#262626" mask="url(#a)"/></svg>