<svg width="45" height="46" fill="none" xmlns="http://www.w3.org/2000/svg"><path d="M11.15 4.785c-1.012.337-.9.898-1.798 1.685-1.685 1.46-3.258 1.685-4.494 3.707-1.91 3.37-3.483 8.763-3.932 12.582-.225 1.573.112 3.483.112 5.056 0 1.46-.449 3.932-.112 5.28.562 2.134 2.022 2.808 3.483 4.494 2.247 2.471 3.595 4.493 6.74 5.841 4.27 1.798 10.111 2.584 14.605 1.685 1.685-.337 3.37-1.01 4.943-1.46 2.022-.674 4.381-.674 6.29-1.573 3.259-1.685 4.382-4.606 5.169-7.864.898-3.932 1.685-8.313 1.91-12.357.224-3.146-.338-6.853-.9-9.886-.224-1.798-1.347-3.483-2.583-4.719-1.348-1.236-3.37-3.033-5.056-3.82-1.348-.673-2.696-.673-4.044-1.123-.225-.112-1.797-.562-2.022-.674-3.37-.674-8.089-.899-11.459 0-.674.225-1.011.562-1.91.674" fill="#3EB549"/><path d="M11.15 4.785c-1.012.337-.9.898-1.798 1.685-1.685 1.46-3.258 1.685-4.494 3.707-1.91 3.37-3.483 8.763-3.932 12.582-.225 1.573.112 3.483.112 5.056 0 1.46-.449 3.932-.112 5.28.562 2.134 2.022 2.808 3.483 4.494 2.247 2.471 3.595 4.493 6.74 5.841 4.27 1.798 10.111 2.584 14.605 1.685 1.685-.337 3.37-1.01 4.943-1.46 2.022-.674 4.381-.674 6.29-1.573 3.259-1.685 4.382-4.606 5.169-7.864.898-3.932 1.685-8.313 1.91-12.357.224-3.146-.338-6.853-.9-9.886-.224-1.798-1.347-3.483-2.583-4.719-1.348-1.236-3.37-3.033-5.056-3.82-1.348-.673-2.696-.673-4.044-1.123-.225-.112-1.797-.562-2.022-.674-3.37-.674-8.089-.899-11.459 0-.674.225-1.011.562-1.91.674" stroke="#262626" stroke-miterlimit="10"/></svg>