<svg width="56" height="58" fill="none" xmlns="http://www.w3.org/2000/svg"><path d="M22.831 20.483c.787-2.135 1.124-4.382 2.135-6.516 1.348-2.809 3.258-5.28 4.493-8.089.675-1.46 1.124-2.36 2.023-3.595.337-.562.898-1.236.898-1.91-.112.674.225 1.798.337 2.472.675 2.92 1.124 5.842 1.798 8.762.562 2.81.45 5.618 1.236 8.314.112.45.112 1.348.449 1.685.562.562 3.37.45 4.044.562 3.146.337 6.291.112 9.437.224 1.797 0 4.157.674 5.842.337a3.067 3.067 0 00-1.348 1.012 51.58 51.58 0 00-1.236 1.91c-.786 1.123-1.685 1.91-2.696 2.808-.674.561-1.348 1.236-1.91 1.797-1.123.899-2.696 1.124-3.707 2.135-1.124 1.01-1.46 2.247-3.258 2.359-.225 1.011 2.022 4.494 2.134 4.83 1.573 2.697 2.809 4.944 3.82 7.865.45 1.46 1.123 2.808 1.573 4.156.337 1.236.337 2.472.786 3.595-1.573-1.348-3.258-2.471-4.943-3.82-2.247-1.91-3.82-4.268-5.505-6.515-1.235-1.573-2.471-3.37-3.82-4.831-.786-.899-1.46-1.797-2.021-2.92-.338-.563.112-1.124-.9-1.124-.561 0-1.797 1.01-2.021 1.236-1.46 1.348-2.023 3.37-3.146 4.942-3.146 4.157-7.302 6.966-11.346 9.999-.562.45-5.505 5.392-5.618 5.168.9-3.932 3.37-7.303 5.168-10.785 1.123-2.022 1.91-4.157 2.584-6.404.112-1.123.562-2.022 1.348-2.92.45-.562 2.584-2.36 2.472-3.37-.113-1.012-2.135-1.461-2.921-1.91-2.584-1.349-4.606-3.37-6.74-5.393a248.617 248.617 0 00-7.865-7.527C3.284 18.011 1.711 17 .925 15.652c.561 0 1.01.112 1.572.337 1.798.674 3.595.786 5.505 1.236a92.438 92.438 0 005.28 1.46c1.348.225 2.697.112 4.045.337 2.134.225 4.156 1.123 6.29 1.123" fill="#FF0"/><path d="M22.831 20.483c.787-2.135 1.124-4.382 2.135-6.516 1.348-2.809 3.258-5.28 4.493-8.089.675-1.46 1.124-2.36 2.023-3.595.337-.562.898-1.236.898-1.91-.112.674.225 1.798.337 2.472.675 2.92 1.124 5.842 1.798 8.762.562 2.81.45 5.618 1.236 8.314.112.45.112 1.348.449 1.685.562.562 3.37.45 4.044.562 3.146.337 6.291.112 9.437.224 1.797 0 4.157.674 5.842.337a3.067 3.067 0 00-1.348 1.012 51.58 51.58 0 00-1.236 1.91c-.786 1.123-1.685 1.91-2.696 2.808-.674.561-1.348 1.236-1.91 1.797-1.123.899-2.696 1.124-3.707 2.135-1.124 1.01-1.46 2.247-3.258 2.359-.225 1.011 2.022 4.494 2.134 4.83 1.573 2.697 2.809 4.944 3.82 7.865.45 1.46 1.123 2.808 1.573 4.156.337 1.236.337 2.472.786 3.595-1.573-1.348-3.258-2.471-4.943-3.82-2.247-1.91-3.82-4.268-5.505-6.515-1.235-1.573-2.471-3.37-3.82-4.831-.786-.899-1.46-1.797-2.021-2.92-.338-.563.112-1.124-.9-1.124-.561 0-1.797 1.01-2.021 1.236-1.46 1.348-2.023 3.37-3.146 4.942-3.146 4.157-7.302 6.966-11.346 9.999-.562.45-5.505 5.392-5.618 5.168.9-3.932 3.37-7.303 5.168-10.785 1.123-2.022 1.91-4.157 2.584-6.404.112-1.123.562-2.022 1.348-2.92.45-.562 2.584-2.36 2.472-3.37-.113-1.012-2.135-1.461-2.921-1.91-2.584-1.349-4.606-3.37-6.74-5.393a248.617 248.617 0 00-7.865-7.527C3.284 18.011 1.711 17 .925 15.652c.561 0 1.01.112 1.572.337 1.798.674 3.595.786 5.505 1.236a92.438 92.438 0 005.28 1.46c1.348.225 2.697.112 4.045.337 2.134.225 4.156 1.123 6.29 1.123" stroke="#262626" stroke-miterlimit="10"/></svg>