<svg width="32" height="58" fill="none" xmlns="http://www.w3.org/2000/svg"><path d="M17.038 55.372a8.124 8.124 0 00-2.471-1.91c-2.022-1.123-3.707-2.472-5.168-4.269-2.471-2.584-4.606-5.505-6.403-8.65C1.648 37.397 1.31 33.465.974 30.207c-.337-3.82 0-7.751-.113-11.57-.224-1.574-.224-3.146.113-4.72 1.01-1.347 4.156-1.347 5.504-1.347 1.686-.113 3.034-.225 3.82 1.348 1.236 2.359 1.123 6.515 1.348 8.987.337 4.381.786 8.65.674 13.144.337-4.044 2.584-8.426 3.932-12.133 2.247-6.179 4.606-12.47 8.089-18.087.898-1.348 2.246-4.157 4.156-4.83 2.247 2.47 2.472 6.29 2.697 9.436.337 5.168-.113 10.785-.674 16.065-.45 3.82-1.236 7.64-2.697 11.234-.674 1.573-8.538 19.323-6.066 19.66" fill="#D9D9D9"/><path d="M17.038 55.372a8.124 8.124 0 00-2.471-1.91c-2.022-1.123-3.707-2.472-5.168-4.269-2.471-2.584-4.606-5.505-6.403-8.65C1.648 37.397 1.31 33.465.974 30.207c-.337-3.82 0-7.751-.113-11.57-.224-1.574-.224-3.146.113-4.72 1.01-1.347 4.156-1.347 5.504-1.347 1.686-.113 3.034-.225 3.82 1.348 1.236 2.359 1.123 6.515 1.348 8.987.337 4.381.786 8.65.674 13.144.337-4.044 2.584-8.426 3.932-12.133 2.247-6.179 4.606-12.47 8.089-18.087.898-1.348 2.246-4.157 4.156-4.83 2.247 2.47 2.472 6.29 2.697 9.436.337 5.168-.113 10.785-.674 16.065-.45 3.82-1.236 7.64-2.697 11.234-.674 1.573-8.538 19.323-6.066 19.66" stroke="#262626" stroke-miterlimit="10"/></svg>