<svg width="57" height="50" fill="none" xmlns="http://www.w3.org/2000/svg"><path d="M6.303 10.984c.786-.562 1.01-1.573 1.685-2.134 1.123-1.124 2.36-1.798 3.482-3.034 1.236-1.46 2.697-2.808 3.483-4.38 1.123 1.797 2.36 3.032 3.707 4.605 1.686 1.91 3.932 3.483 5.393 5.73 1.573 2.471 3.482 4.943 5.28 7.19.562.674-.112 1.123 1.236 1.01.786 0 2.134-2.246 2.471-2.696 1.348-1.685 2.472-3.37 4.044-4.943 1.348-1.348 1.91-3.033 3.37-4.269.787-.786 1.686-1.123 2.472-2.022.674-.786.899-1.685 1.798-2.471 1.01-.787 2.247-1.124 3.033-2.135.674 2.809 3.707 5.954 5.954 7.64 1.573 1.123 2.696 1.572 1.348 3.257-1.236 1.573-2.808 3.483-4.381 4.606-2.921 2.022-5.73 4.157-8.65 6.067-.9.561-1.798 1.01-2.584 1.685-.337.337-.562.224-.9.562-.336.337-.336.786-.898 1.123.337.45.225 1.123.45 1.685.786 1.573 2.134 2.472 3.37 3.595 1.685 1.573 4.044 3.483 5.392 5.28 1.011 1.46 1.91 3.033 3.146 4.381.898.9 1.685 1.573 2.022 2.697-2.022 1.123-4.157 1.235-6.516 1.797-2.247.562-3.932 1.91-5.954 2.809-1.011-1.348-1.685-2.36-3.146-3.37-1.572-1.124-2.359-1.686-3.257-3.259-.45-.786-1.012-1.46-1.573-2.246-2.135-2.809-3.483-6.516-7.864-3.37-2.022 1.347-3.707 2.92-5.393 4.493-.786.674-1.797 1.011-2.471 1.797-.45.45-.562 1.236-1.011 1.573-1.011.9-2.809 1.011-3.932 1.91-.899.674-1.348 1.236-2.36 1.685-.673-2.471-4.268-3.707-5.616-5.842-1.124-1.685-2.472-3.482-.787-5.055.787-.786 2.36-1.011 3.37-1.573 1.798-.786 2.697-2.696 4.045-3.932 1.235-1.123 5.841-3.145 5.73-5.167 1.347 0 2.695-.787 3.706-1.573 1.91-1.685.9-2.584-1.01-3.707-4.382-2.697-7.977-6.629-12.47-9.1" fill="#70CCF7"/><path d="M6.303 10.984c.786-.562 1.01-1.573 1.685-2.134 1.123-1.124 2.36-1.798 3.482-3.034 1.236-1.46 2.697-2.808 3.483-4.38 1.123 1.797 2.36 3.032 3.707 4.605 1.686 1.91 3.932 3.483 5.393 5.73 1.573 2.471 3.482 4.943 5.28 7.19.562.674-.112 1.123 1.236 1.01.786 0 2.134-2.246 2.471-2.696 1.348-1.685 2.472-3.37 4.044-4.943 1.348-1.348 1.91-3.033 3.37-4.269.787-.786 1.686-1.123 2.472-2.022.674-.786.899-1.685 1.798-2.471 1.01-.787 2.247-1.124 3.033-2.135.674 2.809 3.707 5.954 5.954 7.64 1.573 1.123 2.696 1.572 1.348 3.257-1.236 1.573-2.808 3.483-4.381 4.606-2.921 2.022-5.73 4.157-8.65 6.067-.9.561-1.798 1.01-2.584 1.685-.337.337-.562.224-.9.562-.336.337-.336.786-.898 1.123.337.45.225 1.123.45 1.685.786 1.573 2.134 2.472 3.37 3.595 1.685 1.573 4.044 3.483 5.392 5.28 1.011 1.46 1.91 3.033 3.146 4.381.898.9 1.685 1.573 2.022 2.697-2.022 1.123-4.157 1.235-6.516 1.797-2.247.562-3.932 1.91-5.954 2.809-1.011-1.348-1.685-2.36-3.146-3.37-1.572-1.124-2.359-1.686-3.257-3.259-.45-.786-1.012-1.46-1.573-2.246-2.135-2.809-3.483-6.516-7.864-3.37-2.022 1.347-3.707 2.92-5.393 4.493-.786.674-1.797 1.011-2.471 1.797-.45.45-.562 1.236-1.011 1.573-1.011.899-2.809 1.011-3.932 1.91-.899.674-1.348 1.236-2.36 1.685-.673-2.471-4.268-3.707-5.616-5.842-1.124-1.685-2.472-3.482-.787-5.055.787-.786 2.36-1.011 3.37-1.573 1.798-.786 2.697-2.696 4.045-3.932 1.235-1.123 5.841-3.145 5.73-5.167 1.347 0 2.695-.787 3.706-1.573 1.91-1.685.9-2.584-1.01-3.707-4.382-2.697-7.977-6.629-12.47-9.1" stroke="#262626" stroke-miterlimit="10"/></svg>