<svg width="53" height="49" fill="none" xmlns="http://www.w3.org/2000/svg"><path d="M23.774 42.027c-2.022-3.483-3.37-7.302-5.841-10.448-3.258-4.157-6.966-7.864-9.55-12.358-.898-1.572-2.022-3.033-3.594-4.156-.9-.674-2.472-1.124-3.146-2.022-2.36-3.034.45-7.415 3.37-8.988 1.91-1.01 3.82-1.01 5.954-1.348 3.258-.45 6.516-1.348 9.774-1.685 3.82-.337 7.527-.899 10.223 2.135 1.798 2.022 1.798 6.29 1.46 8.762-.336 2.472-.786 4.943-1.235 7.415.112-1.236 1.236-2.135 1.91-3.033a188.66 188.66 0 003.932-6.18c1.46-2.358 3.145-5.167 6.178-5.841 3.034-.674 6.516.786 7.864 3.595 2.36 4.494-1.123 9.774-4.381 12.695-1.348 1.235-2.809 1.91-4.269 3.033-1.797 1.348-3.483 3.033-5.168 4.606-1.46 1.348-2.808 2.359-4.381 3.595-1.46 1.123-1.685 2.584-2.696 4.044-2.022 2.696-4.83 4.269-5.842 7.752-.562 1.797-.45 3.594-.45 5.392" fill="#fff"/><path d="M23.774 42.027c-2.022-3.483-3.37-7.302-5.841-10.448-3.258-4.157-6.966-7.864-9.55-12.358-.898-1.572-2.022-3.033-3.594-4.156-.9-.674-2.472-1.124-3.146-2.022-2.36-3.034.45-7.415 3.37-8.988 1.91-1.01 3.82-1.01 5.954-1.348 3.258-.45 6.516-1.348 9.774-1.685 3.82-.337 7.527-.899 10.223 2.135 1.798 2.022 1.798 6.29 1.46 8.762-.336 2.472-.786 4.943-1.235 7.415.112-1.236 1.236-2.135 1.91-3.033a188.66 188.66 0 003.932-6.18c1.46-2.358 3.145-5.167 6.178-5.841 3.034-.674 6.516.786 7.864 3.595 2.36 4.494-1.123 9.774-4.381 12.695-1.348 1.235-2.809 1.91-4.269 3.033-1.797 1.348-3.483 3.033-5.168 4.606-1.46 1.348-2.808 2.359-4.381 3.595-1.46 1.123-1.685 2.584-2.696 4.044-2.022 2.696-4.83 4.269-5.842 7.752-.562 1.797-.45 3.594-.45 5.392" stroke="#262626" stroke-miterlimit="10"/></svg>