<svg width="31" height="32" fill="none" xmlns="http://www.w3.org/2000/svg"><path d="M17.186.981c-.899.225-2.247-.112-3.034.112-1.572.45-3.033 1.348-4.493 1.91-.562-.112-1.236-.112-1.798.112-1.348.562-3.033 2.697-3.932 3.82-3.258 3.707-2.696 10.223-2.471 14.942.225 5.617 6.291 6.965 10.672 8.425 10.336 3.37 18.986-6.291 18.312-16.29-.225-3.931-2.696-7.077-4.83-10.11" fill="red"/><path d="M17.186.981c-.899.225-2.247-.112-3.034.112-1.572.45-3.033 1.348-4.493 1.91-.562-.112-1.236-.112-1.798.112-1.348.562-3.033 2.697-3.932 3.82-3.258 3.707-2.696 10.223-2.471 14.942.225 5.617 6.291 6.965 10.672 8.425 10.336 3.37 18.986-6.291 18.312-16.29-.225-3.931-2.696-7.077-4.83-10.11" stroke="#262626" stroke-miterlimit="10"/></svg>